<svg width="1440" height="1017" viewBox="0 0 1440 1017" fill="none" xmlns="http://www.w3.org/2000/svg">
<rect width="1440" height="1017" fill="#EFFEF6"/>
<path d="M1185.81 445.458H1200.82C1200.82 445.458 1203.2 443.985 1202.53 441.905C1201.85 439.825 1197.45 440.952 1197.45 440.952C1197.45 440.952 1196.28 437.096 1192.68 436.966C1189.09 436.836 1188.59 440.692 1188.59 440.692C1188.59 440.692 1185.4 439.349 1184.28 440.996C1183.15 442.642 1185.81 445.458 1185.81 445.458ZM1304.59 447.802H1319.61C1319.61 447.802 1321.99 446.328 1321.32 444.248C1320.64 442.168 1316.24 443.295 1316.24 443.295C1316.24 443.295 1315.07 439.439 1311.47 439.309C1307.87 439.179 1307.38 443.035 1307.38 443.035C1307.38 443.035 1304.19 441.692 1303.06 443.339C1301.94 444.985 1304.59 447.802 1304.59 447.802ZM1241.2 410.397H1277.82C1277.82 410.397 1283.54 405.343 1280.68 400.289C1277.82 395.235 1273.08 397.321 1273.08 397.321C1273.08 397.321 1270.5 387.212 1260.59 387.854C1250.69 388.496 1249.11 397.802 1249.11 397.802C1249.11 397.802 1240.95 395.074 1237.79 399.727C1234.62 404.381 1241.2 410.397 1241.2 410.397ZM1380.39 451.747H1407.78C1407.78 451.747 1411.27 448.682 1409.84 446.308C1408.4 443.934 1402.96 445.022 1402.96 445.022C1402.96 445.022 1401.52 437.901 1394.14 438.495C1386.75 439.088 1386.24 445.813 1386.24 445.813C1386.24 445.813 1381.31 442.945 1379.16 445.615C1377 448.286 1380.39 451.747 1380.39 451.747Z" fill="#F9E4C7"/>
<path d="M78.8064 578.243H93.821C93.821 578.243 96.2037 576.77 95.5292 574.69C94.8547 572.61 90.4494 573.737 90.4494 573.737C90.4494 573.737 89.2804 569.88 85.6839 569.75C82.0875 569.62 81.593 573.477 81.593 573.477C81.593 573.477 78.4015 572.133 77.2773 573.78C76.154 575.427 78.8064 578.243 78.8064 578.243ZM197.592 580.586H212.607C212.607 580.586 214.99 579.113 214.315 577.033C213.641 574.953 209.235 576.08 209.235 576.08C209.235 576.08 208.066 572.223 204.47 572.093C200.874 571.963 200.379 575.82 200.379 575.82C200.379 575.82 197.188 574.476 196.063 576.123C194.94 577.77 197.592 580.586 197.592 580.586ZM134.2 543.181H170.822C170.822 543.181 176.538 538.127 173.68 533.073C170.822 528.019 166.078 530.105 166.078 530.105C166.078 530.105 163.498 519.997 153.593 520.639C143.689 521.28 142.107 530.586 142.107 530.586C142.107 530.586 133.95 527.859 130.788 532.512C127.625 537.165 134.2 543.181 134.2 543.181ZM273.387 584.532H300.783C300.783 584.532 304.272 581.466 302.836 579.092C301.399 576.719 295.961 577.807 295.961 577.807C295.961 577.807 294.524 570.686 287.137 571.279C279.749 571.872 279.236 578.598 279.236 578.598C279.236 578.598 274.311 575.729 272.156 578.4C270.001 581.07 273.387 584.532 273.387 584.532Z" fill="#F9E4C7"/>
<path d="M1208.18 165.601C1208.11 165.601 1208.04 165.565 1208 165.503C1207.96 165.434 1207.97 165.348 1208.02 165.283L1211.97 160.265C1212 160.22 1212.05 160.192 1212.11 160.187C1212.16 160.182 1212.22 160.2 1212.27 160.238L1216.72 164.134C1216.78 164.186 1216.81 164.265 1216.78 164.339C1216.76 164.413 1216.69 164.467 1216.61 164.477L1208.21 165.599C1208.2 165.601 1208.19 165.601 1208.18 165.601ZM1212.16 160.676L1208.64 165.141L1216.12 164.142L1212.16 160.676ZM1247.21 165.601C1247.19 165.601 1247.17 165.598 1247.14 165.591L1240.43 163.409C1240.35 163.382 1240.29 163.307 1240.29 163.222C1240.29 163.137 1240.35 163.061 1240.43 163.034L1246.66 161.02C1246.72 161.002 1246.79 161.009 1246.84 161.04C1246.89 161.073 1246.93 161.127 1246.93 161.186L1247.41 165.382C1247.42 165.449 1247.39 165.515 1247.34 165.558C1247.3 165.586 1247.26 165.601 1247.21 165.601ZM1241.14 163.222L1246.97 165.116L1246.55 161.473L1241.14 163.222ZM1212.17 157.347C1212.15 157.347 1212.13 157.344 1212.11 157.338C1212.05 157.318 1212 157.27 1211.98 157.21L1204.33 134.494C1204.3 134.39 1204.36 134.278 1204.47 134.245C1204.57 134.21 1204.69 134.268 1204.72 134.373L1212.28 156.825L1228.93 144.906C1229.02 144.841 1229.15 144.859 1229.22 144.946C1229.29 145.034 1229.27 145.159 1229.18 145.224L1212.3 157.308C1212.26 157.334 1212.22 157.347 1212.17 157.347Z" fill="black"/>
<path d="M1212.17 157.347C1212.16 157.347 1212.14 157.345 1212.12 157.341C1212.04 157.321 1211.97 157.249 1211.97 157.164L1210.35 135.967C1210.34 135.858 1210.43 135.763 1210.54 135.755C1210.66 135.745 1210.75 135.829 1210.76 135.938L1212.33 156.527L1222.44 140.801C1222.5 140.707 1222.63 140.679 1222.72 140.737C1222.82 140.794 1222.85 140.917 1222.79 141.01L1212.35 157.254C1212.31 157.313 1212.24 157.347 1212.17 157.347ZM1248.06 159.46C1248.01 159.46 1247.96 159.444 1247.92 159.414C1247.87 159.373 1247.85 159.311 1247.85 159.248L1249.4 138.843C1249.41 138.735 1249.51 138.643 1249.62 138.66C1249.74 138.669 1249.82 138.764 1249.81 138.872L1248.28 159L1273.53 152.599C1273.64 152.569 1273.75 152.635 1273.78 152.74C1273.81 152.846 1273.75 152.954 1273.64 152.982L1248.11 159.454C1248.09 159.458 1248.07 159.46 1248.06 159.46Z" fill="black"/>
<path d="M1248.06 159.46C1248 159.46 1247.95 159.442 1247.92 159.407C1247.85 159.348 1247.83 159.256 1247.87 159.178L1256.55 141.415C1256.6 141.316 1256.72 141.274 1256.82 141.321C1256.92 141.367 1256.97 141.485 1256.92 141.584L1248.52 158.786L1268.55 147.93C1268.65 147.877 1268.78 147.91 1268.83 148.006C1268.89 148.101 1268.85 148.222 1268.75 148.276L1248.16 159.435C1248.12 159.452 1248.09 159.46 1248.06 159.46Z" fill="black"/>
<path d="M1221.04 167.604C1221.04 167.604 1220.58 166.493 1221.47 165.816C1222.36 165.139 1226.25 162.927 1227 163.174C1227.75 163.422 1227.8 164.082 1227.8 164.082C1227.8 164.082 1228.57 162.861 1228.85 162.993C1229.12 163.125 1228.73 163.653 1228.73 163.653C1228.73 163.653 1230.39 162.993 1230.44 163.422C1230.49 163.851 1229.76 164.28 1229.76 164.28C1229.76 164.28 1230.94 164.413 1231.16 164.858C1231.38 165.304 1230.7 167.96 1230.7 167.96C1230.7 167.96 1227.92 169.646 1225.97 169.646C1224.02 169.646 1221.04 167.604 1221.04 167.604Z" fill="#121A41"/>
<path d="M1207.75 172.865L1213.78 169.761L1214.12 174.582C1214.12 174.582 1219.6 172.265 1220.49 172.172C1221.38 172.078 1230.1 171.809 1230.1 171.809L1239.47 174.186L1240.39 168.837L1247.21 172.105C1247.21 172.105 1245.94 180.624 1244.4 181.614C1242.86 182.605 1237.34 181.119 1237.34 181.119C1237.34 181.119 1234.33 187.194 1233.87 188.955C1233.42 190.716 1232.78 194.501 1232.78 194.501C1232.78 194.501 1228.89 194.413 1222.91 192.565C1216.93 190.716 1210.63 185.697 1210.63 185.697L1216.97 179.666C1216.97 179.666 1210.03 179.534 1209.07 179.182C1208.11 178.83 1207.75 172.865 1207.75 172.865Z" fill="#E05959"/>
<path d="M1221.04 167.604C1221.04 167.604 1220.67 170.62 1221.54 172.469C1222.41 174.318 1223.82 174.141 1224.35 174.097C1224.87 174.053 1225.22 173.877 1225.22 173.877L1225.7 174.736L1230.1 171.808L1228.78 170.047C1228.78 170.047 1230.61 170.047 1230.7 168.242C1230.79 166.437 1229.12 165.689 1228.07 166.239C1227.02 166.789 1226.98 168.748 1226.98 168.748C1226.98 168.748 1226.31 168.66 1226.04 168.198C1225.77 167.736 1225.26 166.878 1225.26 166.878C1225.26 166.878 1223.55 167.979 1221.04 167.604Z" fill="#F69380"/>
<path d="M1233.4 172.646L1232.64 174.736L1230.11 175.264L1229.95 178.522L1219.97 182.022L1230.11 171.809L1233.4 172.646Z" fill="#AC4848"/>
<path d="M1230.11 171.809L1230.7 171.96C1230.7 171.96 1226.78 176.662 1226.78 176.612C1226.78 176.563 1225.7 174.736 1225.7 174.736L1230.11 171.809Z" fill="#CCB196"/>
<path d="M1223.6 174.211C1223.6 174.211 1219.92 182.066 1219.97 182.022C1220.01 181.977 1226.25 175.686 1226.25 175.686L1225.7 174.736L1225.22 173.878L1223.6 174.211Z" fill="#F9E4C7"/>
<path d="M1208.8 200.357C1208.8 200.357 1208.12 202.283 1210.52 205.023C1212.92 207.764 1214.33 207.927 1214.55 207.445C1214.77 206.962 1215.49 203.538 1213.4 201.788C1211.31 200.038 1208.8 200.357 1208.8 200.357Z" fill="#121A41"/>
<path d="M1210.45 201.1L1209.19 204.869L1212.18 208.127L1214.33 205.726C1214.33 205.726 1214.76 203.944 1213.53 202.712C1212.29 201.479 1210.45 201.1 1210.45 201.1Z" fill="#F69380"/>
<path d="M1221.4 172.118L1219.51 173.878L1221.15 175.11L1219.76 175.859L1219.97 182.022L1223.6 174.211L1221.4 172.118Z" fill="#AC4848"/>
<path d="M1190.99 196.042C1190.99 196.042 1198.07 184.641 1199.8 184.376C1201.54 184.112 1209.21 188.426 1209.21 188.426L1213.05 186.313L1216.06 185.961L1217.07 188.558C1217.07 188.558 1221.59 191.024 1223.6 191.948C1225.61 192.872 1229 194.051 1229 194.051L1229.44 198.859C1229.44 198.859 1226.52 200.708 1224.05 200.84C1221.59 200.972 1218.07 199.784 1218.07 199.784L1214.55 207.444C1214.55 207.444 1214.69 204.626 1212.5 202.646C1210.31 200.665 1208.8 200.356 1208.8 200.356L1210.21 198.243L1201.58 193.665L1197.47 200.532L1190.99 196.042Z" fill="#3C468E"/>
<path d="M1210.63 185.697C1210.63 185.697 1209.85 185.058 1209.35 184.365C1208.84 183.672 1208.39 182.704 1208.39 182.704C1208.39 182.704 1208.16 184.311 1208.18 185.477C1208.2 186.644 1209.21 188.427 1209.21 188.427L1212.13 186.818L1210.63 185.697ZM1223.83 192.053L1229.19 189.637C1229.19 189.637 1231.29 193.951 1232.78 194.501C1234.26 195.052 1236.11 194.755 1236.11 194.755L1229.44 198.86L1229 194.051C1229 194.052 1225.01 192.615 1223.83 192.053Z" fill="#EF7575"/>
<path d="M1241.44 169.341C1241.44 169.341 1241.64 166.768 1241.59 166.152C1241.55 165.535 1241.84 163.444 1242.14 163.29C1242.44 163.136 1242.85 163.29 1242.85 163.29C1242.85 163.29 1243.42 163.219 1243.72 163.222C1244.01 163.224 1244.38 163.4 1244.38 163.4C1244.38 163.4 1244.58 163.312 1244.86 163.334C1245.13 163.356 1245.34 163.642 1245.34 163.642C1245.34 163.642 1246.02 163.532 1246.23 163.642C1246.43 163.753 1246.34 165.425 1246.34 165.425L1247.21 164.897L1247.37 164.171C1247.37 164.171 1248.01 164.941 1248.05 165.227C1248.1 165.513 1246.37 167.076 1246.23 167.406C1246.09 167.737 1246.06 171.555 1246.06 171.555L1241.44 169.341ZM1209.03 172.206C1209.03 172.206 1209.53 165.073 1209.67 164.567C1209.8 164.061 1210.63 164.149 1210.63 164.149C1210.63 164.149 1210.95 163.554 1211.2 163.51C1211.45 163.466 1211.68 163.51 1211.68 163.51C1211.68 163.51 1211.84 162.85 1212.5 162.828C1213.16 162.806 1213.23 162.983 1213.23 162.983C1213.23 162.983 1213.8 163.224 1213.89 163.51C1213.98 163.796 1213.89 164.258 1213.89 164.258C1213.89 164.258 1215.17 164.742 1215.31 164.985C1215.44 165.227 1214.42 166.922 1214.14 167.208C1213.87 167.494 1213.05 168.11 1213 168.199C1212.95 168.287 1213.01 170.156 1213.01 170.156L1209.03 172.206Z" fill="#F69380"/>
<path d="M1208.2 207.687L1209.19 204.869L1212.18 208.127L1210.21 211.23L1208.2 207.687Z" fill="#E0D5C3"/>
<path d="M1184.29 201.457C1184.29 201.457 1187.42 203.196 1188.02 203.284C1188.61 203.373 1190.53 202.734 1190.53 202.734L1193.45 205.023L1192.17 209.315L1190.25 208.237L1190.42 207.136L1189.05 207.709C1189.05 207.709 1184.14 202.889 1184.02 202.635C1183.91 202.382 1184.29 201.457 1184.29 201.457Z" fill="#121A41"/>
<path d="M1192.13 196.837L1191.19 200.247L1195.37 202.03L1196.87 200.116L1192.13 196.837Z" fill="#F69380"/>
<path d="M1190.53 202.734L1191.19 200.247L1195.37 202.03L1193.45 205.023L1190.85 204.464C1190.85 204.464 1191.24 203.329 1190.53 202.734Z" fill="#E0D5C3"/>
<path d="M1203.64 134.896C1203.64 134.896 1212.83 116.847 1226.68 112.885C1240.54 108.923 1253.06 115.35 1262.56 122.306C1272.06 129.261 1274.16 132.431 1274.71 140.883C1275.25 149.335 1273.79 153.826 1273.79 153.826C1273.79 153.826 1269.5 149.687 1262.65 145.637C1255.8 141.587 1248.85 139.738 1248.85 139.738L1249.59 132.749C1249.59 132.749 1244.5 133.223 1239.23 136.921C1233.97 140.619 1228.94 146.078 1228.94 146.078C1228.94 146.078 1223.83 142.028 1217.07 139.562C1210.31 137.097 1203.64 134.896 1203.64 134.896Z" fill="#2F7559"/>
<path d="M1212.17 126.003C1212.17 126.003 1214.14 127.5 1213.96 130.494C1213.78 133.487 1212.63 135.644 1212.63 135.644L1222.09 139.827C1222.09 139.827 1224.14 137.141 1228.03 136.437C1231.91 135.732 1234.33 137.406 1234.33 137.406C1234.33 137.406 1240.45 133.047 1243.19 131.903C1245.93 130.758 1250.04 129.702 1250.04 129.702C1250.04 129.702 1250.73 124.552 1249.31 120.457C1247.89 116.363 1246.3 115.131 1246.3 115.131C1246.3 115.131 1239.16 112.03 1231.73 113.546C1221.59 115.614 1212.17 126.003 1212.17 126.003Z" fill="#1E513B"/>
<path d="M1249.31 120.457C1248.86 119.162 1248.4 118.155 1247.97 117.381C1246.7 116.553 1245.09 116.055 1243.34 116.055C1239.21 116.055 1235.85 118.824 1235.85 122.24C1235.85 125.656 1239.21 128.425 1243.34 128.425C1246.36 128.425 1248.95 126.949 1250.14 124.826C1250.04 123.414 1249.8 121.872 1249.31 120.457Z" fill="#2F7559"/>
<path d="M1268.29 126.866C1266.76 125.484 1264.88 124.008 1262.56 122.305C1258.53 119.36 1253.97 116.513 1248.99 114.505C1249.03 114.554 1251.4 117.377 1252.21 122.613C1253.03 127.896 1252.69 131.33 1252.69 131.33C1252.69 131.33 1254.78 131.825 1255.7 134.367C1256.63 136.91 1256.22 139.254 1256.22 139.254L1267.12 145.461C1267.12 145.461 1268.08 143.524 1269.5 142.908C1270.91 142.292 1272.24 142.116 1272.24 142.116C1272.24 142.116 1272.79 135.972 1271.55 132.749C1270.33 129.549 1268.31 126.904 1268.29 126.866Z" fill="#1E513B"/>
<path d="M1212.13 160.583C1212.13 160.583 1212.13 160.583 1212.13 160.583C1212.01 160.581 1211.92 160.491 1211.92 160.382L1211.97 157.146C1211.97 157.038 1212.06 156.951 1212.17 156.951C1212.17 156.951 1212.17 156.951 1212.18 156.951C1212.29 156.952 1212.38 157.042 1212.38 157.151L1212.33 160.387C1212.33 160.495 1212.24 160.583 1212.13 160.583ZM1246.73 161.405C1246.69 161.405 1246.65 161.395 1246.62 161.373C1246.52 161.313 1246.5 161.191 1246.56 161.099L1247.88 159.153C1247.95 159.061 1248.07 159.036 1248.17 159.097C1248.26 159.157 1248.29 159.279 1248.23 159.371L1246.9 161.316C1246.86 161.374 1246.8 161.405 1246.73 161.405ZM1216.06 186.094C1216.03 186.094 1215.99 186.082 1215.97 186.057C1215.91 186.007 1215.91 185.923 1215.96 185.871L1219.87 181.93C1219.92 181.878 1220.01 181.877 1220.06 181.926C1220.11 181.977 1220.12 182.06 1220.06 182.113L1216.16 186.053C1216.13 186.08 1216.1 186.094 1216.06 186.094ZM1210.21 198.376C1210.19 198.376 1210.17 198.37 1210.14 198.358C1210.08 198.321 1210.06 198.24 1210.1 198.178C1210.32 197.812 1215.54 189.224 1215.96 188.779C1216.42 188.286 1217.07 188.424 1217.1 188.431C1217.17 188.447 1217.21 188.517 1217.2 188.589C1217.18 188.659 1217.11 188.703 1217.03 188.688C1217.01 188.682 1216.51 188.58 1216.16 188.956C1215.84 189.297 1212.21 195.225 1210.33 198.311C1210.31 198.353 1210.26 198.376 1210.21 198.376ZM1218.07 199.916C1218.05 199.916 1218.03 199.912 1218.01 199.902C1217.94 199.869 1217.91 199.789 1217.95 199.724L1220.46 195.014C1220.49 194.949 1220.58 194.923 1220.64 194.957C1220.71 194.991 1220.74 195.07 1220.7 195.135L1218.19 199.845C1218.17 199.89 1218.12 199.916 1218.07 199.916ZM1201.35 193.313C1201.3 193.313 1201.25 193.285 1201.23 193.24L1200.18 191.215C1200.15 191.149 1200.17 191.07 1200.24 191.038C1200.31 191.007 1200.39 191.032 1200.43 191.097L1201.25 192.684L1201.38 190.773C1201.38 190.705 1201.44 190.65 1201.51 190.649C1201.51 190.649 1201.51 190.649 1201.51 190.649C1201.58 190.649 1201.64 190.701 1201.65 190.768L1201.85 192.729L1202.88 190.852C1202.91 190.788 1202.99 190.763 1203.06 190.796C1203.13 190.83 1203.15 190.91 1203.12 190.975L1201.89 193.242C1201.86 193.293 1201.8 193.321 1201.74 193.31C1201.68 193.299 1201.63 193.251 1201.63 193.194L1201.54 192.386L1201.49 193.189C1201.48 193.249 1201.44 193.298 1201.38 193.31C1201.37 193.312 1201.36 193.313 1201.35 193.313Z" fill="black"/>
<path d="M1211.64 196.037C1211.58 196.037 1211.52 195.99 1211.51 195.924L1211 192.628C1210.99 192.555 1211.04 192.488 1211.12 192.478C1211.19 192.464 1211.26 192.517 1211.28 192.59L1211.78 195.886C1211.79 195.958 1211.74 196.025 1211.66 196.035C1211.66 196.036 1211.65 196.037 1211.64 196.037ZM1237.34 181.251C1237.33 181.251 1237.32 181.25 1237.31 181.247L1234.16 180.499C1234.09 180.481 1234.04 180.409 1234.06 180.339C1234.08 180.268 1234.15 180.226 1234.23 180.242L1237.38 180.99C1237.45 181.008 1237.5 181.079 1237.48 181.15C1237.46 181.211 1237.41 181.251 1237.34 181.251Z" fill="black"/>
<path d="M1233.85 181.427C1233.79 181.427 1233.74 181.39 1233.72 181.333C1233.7 181.262 1233.74 181.189 1233.81 181.168L1235.73 180.619C1235.8 180.596 1235.88 180.638 1235.9 180.707C1235.92 180.778 1235.88 180.851 1235.81 180.872L1233.89 181.421C1233.88 181.426 1233.86 181.427 1233.85 181.427ZM1240.45 176.629C1240.4 176.629 1240.35 176.6 1240.33 176.551L1239.62 175.033L1239.4 176.299C1239.39 176.366 1239.33 176.422 1239.25 176.408C1239.18 176.402 1239.13 176.345 1239.13 176.276V174.908L1238.04 175.994C1237.98 176.047 1237.9 176.048 1237.84 175.997C1237.79 175.947 1237.79 175.863 1237.84 175.811L1239.16 174.49C1239.2 174.451 1239.26 174.439 1239.31 174.46C1239.37 174.48 1239.4 174.528 1239.4 174.582V174.702L1239.43 174.56C1239.44 174.502 1239.48 174.458 1239.54 174.451C1239.6 174.444 1239.66 174.475 1239.69 174.528L1240.58 176.443C1240.61 176.509 1240.58 176.587 1240.51 176.617C1240.49 176.625 1240.47 176.629 1240.45 176.629ZM1242.8 163.928C1242.8 163.928 1242.79 163.928 1242.79 163.928C1242.71 163.921 1242.66 163.857 1242.67 163.785L1242.71 163.278C1242.72 163.206 1242.79 163.145 1242.86 163.158C1242.94 163.164 1242.99 163.229 1242.98 163.301L1242.94 163.808C1242.93 163.876 1242.87 163.928 1242.8 163.928ZM1244.32 163.983C1244.32 163.983 1244.31 163.983 1244.3 163.982C1244.23 163.974 1244.18 163.908 1244.18 163.836L1244.24 163.384C1244.25 163.312 1244.32 163.261 1244.39 163.269C1244.47 163.278 1244.52 163.344 1244.51 163.416L1244.46 163.868C1244.45 163.935 1244.39 163.983 1244.32 163.983ZM1245.28 164.204C1245.27 164.204 1245.27 164.203 1245.26 164.203C1245.19 164.194 1245.13 164.127 1245.14 164.055L1245.2 163.626C1245.21 163.553 1245.27 163.501 1245.35 163.512C1245.43 163.521 1245.48 163.587 1245.47 163.659L1245.42 164.088C1245.41 164.155 1245.35 164.204 1245.28 164.204ZM1210.26 166.599C1210.16 166.599 1210.05 166.582 1209.95 166.546C1209.65 166.445 1209.35 166.183 1209.39 165.749C1209.4 165.677 1209.46 165.622 1209.54 165.63C1209.62 165.637 1209.67 165.702 1209.66 165.774C1209.63 166.129 1209.94 166.264 1210.04 166.296C1210.23 166.364 1210.45 166.338 1210.51 166.242C1210.65 166.045 1210.58 164.908 1210.49 164.164C1210.48 164.092 1210.53 164.026 1210.61 164.018C1210.68 164.008 1210.75 164.061 1210.76 164.134C1210.8 164.449 1210.98 166.038 1210.74 166.387C1210.65 166.524 1210.47 166.599 1210.26 166.599Z" fill="black"/>
<path d="M1211.29 166.32C1211 166.32 1210.7 166.205 1210.65 166.184C1210.58 166.156 1210.54 166.079 1210.57 166.012C1210.6 165.944 1210.68 165.912 1210.75 165.941C1210.91 166.005 1211.4 166.148 1211.58 165.971C1211.72 165.822 1211.67 164.586 1211.54 163.526C1211.53 163.454 1211.58 163.388 1211.66 163.38C1211.73 163.374 1211.8 163.423 1211.81 163.495C1211.88 164.042 1212.08 165.851 1211.77 166.154C1211.65 166.28 1211.47 166.32 1211.29 166.32Z" fill="black"/>
<path d="M1212.43 166.009C1212.06 166.009 1211.73 165.825 1211.71 165.814C1211.65 165.777 1211.63 165.696 1211.66 165.633C1211.7 165.569 1211.79 165.55 1211.85 165.587C1211.86 165.589 1212.46 165.927 1212.83 165.603C1213.12 165.345 1213.14 163.864 1213.09 162.991C1213.09 162.918 1213.14 162.855 1213.22 162.851C1213.3 162.843 1213.36 162.903 1213.37 162.975C1213.39 163.374 1213.48 165.38 1213.01 165.797C1212.83 165.957 1212.63 166.009 1212.43 166.009Z" fill="black"/>
<path d="M1213.36 165.862C1213.11 165.862 1212.92 165.722 1212.91 165.713C1212.85 165.669 1212.84 165.586 1212.89 165.528C1212.93 165.47 1213.02 165.459 1213.08 165.505C1213.09 165.512 1213.33 165.682 1213.55 165.541C1213.7 165.444 1213.77 164.801 1213.75 164.263C1213.75 164.19 1213.81 164.129 1213.89 164.126C1213.95 164.126 1214.03 164.181 1214.03 164.255C1214.04 164.551 1214.04 165.539 1213.7 165.761C1213.58 165.836 1213.46 165.862 1213.36 165.862ZM1227.91 168.969C1227.84 168.969 1227.77 168.915 1227.77 168.845C1227.77 168.79 1227.69 167.498 1228.44 167.048C1229.21 166.593 1230 167.163 1230.04 167.188C1230.1 167.231 1230.11 167.314 1230.06 167.372C1230.02 167.431 1229.93 167.442 1229.87 167.398C1229.84 167.378 1229.19 166.913 1228.59 167.274C1227.97 167.639 1228.04 168.816 1228.04 168.828C1228.05 168.901 1227.99 168.964 1227.92 168.968C1227.91 168.969 1227.91 168.969 1227.91 168.969Z" fill="black"/>
<path d="M1229.81 168.903C1229.8 168.903 1229.8 168.903 1229.79 168.902C1229.76 168.898 1229.06 168.797 1228.62 168.24C1228.16 167.658 1228.5 167.061 1228.51 167.036C1228.55 166.973 1228.63 166.95 1228.7 166.986C1228.76 167.021 1228.79 167.101 1228.75 167.165C1228.74 167.184 1228.49 167.639 1228.84 168.08C1229.21 168.549 1229.82 168.639 1229.83 168.64C1229.9 168.651 1229.95 168.718 1229.94 168.79C1229.93 168.855 1229.88 168.903 1229.81 168.903Z" fill="black"/>
<path d="M1222.69 171.809C1222.69 171.809 1225.82 170.29 1226.06 170.554C1226.3 170.818 1226.04 172.535 1225.37 172.975C1224.69 173.415 1222.44 172.083 1222.69 171.809Z" fill="white"/>
<path d="M1222.76 171.285C1222.67 171.285 1222.59 171.265 1222.53 171.215C1222.34 171.064 1222.43 170.481 1222.54 170.018C1222.56 169.947 1222.63 169.905 1222.71 169.919C1222.78 169.935 1222.83 170.006 1222.81 170.077C1222.71 170.5 1222.66 170.943 1222.71 171.024C1222.76 171.048 1223.03 170.979 1223.25 170.875C1223.32 170.843 1223.4 170.87 1223.43 170.936C1223.47 171.001 1223.44 171.081 1223.37 171.112C1223.24 171.174 1222.98 171.285 1222.76 171.285ZM1249.58 132.881C1249.57 132.881 1249.56 132.88 1249.55 132.875C1249.47 132.855 1249.43 132.781 1249.45 132.711C1250.11 130.58 1250.26 129.287 1250 124.833C1249.72 119.888 1247.88 117.484 1247.86 117.461C1247.85 117.44 1247.43 116.744 1246.19 115.211C1244.96 113.692 1242.77 112.671 1242.74 112.66C1242.67 112.629 1242.65 112.55 1242.68 112.485C1242.71 112.419 1242.8 112.392 1242.86 112.422C1242.95 112.464 1245.13 113.48 1246.4 115.049C1247.66 116.601 1248.07 117.287 1248.09 117.316C1248.16 117.4 1249.99 119.785 1250.28 124.818C1250.54 129.312 1250.38 130.62 1249.72 132.786C1249.7 132.843 1249.64 132.881 1249.58 132.881Z" fill="black"/>
<path d="M1210.66 210.521C1210.66 210.521 1210.1 212.023 1209.83 212.617C1209.55 213.211 1208.72 213.405 1208.72 213.405L1206.01 204.793L1208.59 206.585L1210.66 210.521Z" fill="#121A41"/>
<path d="M1206.38 210.966C1206.38 210.966 1206.79 211.659 1206.89 212.518C1206.99 213.376 1208.4 213.987 1209 213.145C1209.6 212.303 1208.76 208.737 1207.97 207.103C1207.18 205.468 1205.47 204.115 1204.94 204.544C1204.41 204.973 1204.43 209.414 1204.85 210.074C1205.28 210.735 1206.19 210.583 1206.38 210.966Z" fill="#283566"/>
<path d="M1221.37 169.937C1221.37 169.937 1221.37 169.937 1221.37 169.937C1221.29 169.936 1221.23 169.875 1221.23 169.803C1221.24 169.56 1221.36 169.101 1221.78 169.101C1222.26 169.101 1222.5 169.569 1222.51 169.588C1222.54 169.654 1222.51 169.732 1222.44 169.764C1222.38 169.795 1222.3 169.769 1222.26 169.703C1222.26 169.7 1222.09 169.365 1221.78 169.365C1221.52 169.365 1221.51 169.804 1221.51 169.808C1221.51 169.88 1221.44 169.937 1221.37 169.937ZM1223.73 169.563C1223.67 169.563 1223.61 169.515 1223.6 169.449C1223.59 169.41 1223.55 169.064 1223.73 168.855C1223.81 168.764 1223.92 168.712 1224.05 168.705C1224.5 168.685 1224.84 169.031 1224.85 169.046C1224.9 169.1 1224.9 169.183 1224.84 169.232C1224.78 169.28 1224.7 169.276 1224.65 169.222C1224.65 169.219 1224.39 168.935 1224.06 168.969C1224.01 168.971 1223.97 168.989 1223.94 169.023C1223.85 169.124 1223.86 169.344 1223.87 169.413C1223.88 169.486 1223.83 169.552 1223.75 169.562C1223.75 169.563 1223.74 169.563 1223.73 169.563Z" fill="black"/>
<path d="M247.114 380.614C247.128 380.614 247.141 380.613 247.155 380.61C247.229 380.595 247.288 380.543 247.31 380.474L257.189 349.571C257.222 349.466 257.161 349.355 257.053 349.323C256.942 349.29 256.829 349.349 256.796 349.454L247.029 380.011L227.896 358.233C227.822 358.149 227.692 358.139 227.606 358.21C227.52 358.28 227.509 358.405 227.582 358.489L246.957 380.544C246.996 380.589 247.054 380.614 247.114 380.614ZM223.216 381.01C223.255 381.01 223.295 381 223.329 380.978C223.411 380.927 223.443 380.827 223.408 380.74L207.856 342.726C207.814 342.624 207.694 342.575 207.589 342.615C207.483 342.655 207.432 342.77 207.473 342.872L222.658 379.988L191.779 349.956C191.699 349.878 191.569 349.878 191.489 349.955C191.408 350.032 191.407 350.157 191.487 350.235L223.07 380.952C223.11 380.99 223.163 381.01 223.216 381.01Z" fill="black"/>
<path d="M246.373 391.708L243.153 390.519C243.153 390.519 242.194 395.538 241.738 396.374C241.281 397.21 238.381 400.402 237.992 400.446C237.604 400.49 236.324 400.446 236.324 400.446L230.753 400.204C230.753 400.204 228.104 400.424 227.83 400.248C227.556 400.072 226.779 394.58 226.779 394.58L222.908 394.844C222.908 394.844 223.148 401.833 223.833 404.122C224.518 406.411 225.112 410.858 226.162 413.014C227.213 415.172 230.866 422.567 230.866 422.567C230.866 422.567 233.515 420.014 235.982 418.869C238.448 417.725 242.97 416.228 242.97 416.228C242.97 416.228 239.91 407.644 240.047 406.543C240.184 405.443 244.751 399.952 245.162 398.779C245.573 397.607 246.373 391.708 246.373 391.708Z" fill="#FEC76D"/>
<path d="M237.535 395.175C237.535 395.175 237.901 394.041 236.622 393.446C235.343 392.852 231.94 392.588 231.598 392.83C231.255 393.072 231.415 393.689 231.415 393.689C231.415 393.689 229.817 393.27 229.452 394.129C229.086 394.987 229.391 395.77 229.391 395.77C229.391 395.77 229.018 397.452 231.712 398.113C234.406 398.773 237.535 395.175 237.535 395.175Z" fill="#AC4848"/>
<path d="M237.535 395.175C237.535 395.175 236.919 400.061 235.959 401.018C235 401.976 234.041 401.645 234.041 401.645L232.979 402.537C232.979 402.537 231.848 402.372 231.095 401.414C230.341 400.457 230.684 399.565 230.684 399.565L230.606 398.211C230.606 398.211 228.834 398.179 228.851 397.105C228.868 396.032 229.536 395.24 230.513 395.685C231.489 396.131 231.643 397.303 231.643 397.303C231.643 397.303 232.174 395.85 232.602 395.718C233.031 395.586 233.767 395.801 234.657 395.421C235.548 395.042 236.97 394.877 237.535 395.175Z" fill="#F69380"/>
<path d="M253.019 418.781L242.97 416.228C242.97 416.228 240.641 416.096 236.896 417.505C233.15 418.914 230.867 422.568 230.867 422.568L237.581 432.384L245.163 429.391L243.793 424.989L249.136 426.089L253.019 418.781Z" fill="#3EA3B9"/>
<path d="M235.993 424.031L238.666 428.72L235.377 430.634L232.328 425.979L235.993 424.031Z" fill="#3C468E"/>
<path d="M235.069 427.102L236.37 424.692L235.993 424.031L232.328 425.979L232.796 426.692L235.069 427.102Z" fill="#121A41"/>
<path d="M251.749 418.459L247.757 425.805L249.136 426.089L253.019 418.781L251.749 418.459Z" fill="#3C468E"/>
<path d="M244.796 428.214L236.955 431.469L237.581 432.384L245.163 429.391L244.796 428.214Z" fill="#3C468E"/>
<path d="M247.793 385.311C248.167 385.311 248.484 385.21 248.714 384.976C248.766 384.924 248.784 384.849 248.761 384.78L247.309 380.356C247.278 380.261 247.183 380.202 247.077 380.221C246.081 380.395 242.803 381.013 242.434 381.638C242.116 382.178 243.735 383.396 244.238 383.756C245.41 384.593 246.798 385.311 247.793 385.311ZM248.329 384.777C247.929 385.056 247.213 384.873 246.662 384.66C244.763 383.928 242.8 382.158 242.801 381.807C242.973 381.526 245.066 380.986 246.972 380.643L248.329 384.777ZM221.708 385.683C223.086 385.683 226.689 384.54 227.458 383.755C227.795 383.411 227.653 383.145 227.577 383.047C227.56 383.026 227.54 383.008 227.516 382.995L223.32 380.641C223.273 380.615 223.215 380.608 223.163 380.621C223.11 380.635 223.065 380.669 223.038 380.715C222.082 382.353 220.579 385.166 221.253 385.6C221.342 385.657 221.5 385.683 221.708 385.683ZM227.26 383.31C227.265 383.335 227.254 383.378 227.182 383.458C226.374 384.356 221.942 385.512 221.479 385.269C221.307 385.008 222.127 383.111 223.294 381.085L227.26 383.31Z" fill="black"/>
<path d="M244.731 429.562C244.731 429.562 247.081 433.793 248.269 434.894C249.456 435.994 253.75 441.057 253.75 441.057L250.096 443.434C250.096 443.434 246.259 439.604 245.163 438.371C244.067 437.139 238.443 432.044 238.443 432.044L244.731 429.562Z" fill="#F69380"/>
<path d="M258.02 440.936C258.525 441.027 258.67 441.86 258.876 442.157C259.081 442.454 258.842 445.426 259.39 446.648C259.938 447.87 260.281 450.147 259.356 450.28C258.431 450.412 257.403 447.969 256.787 447.143C256.17 446.317 255.108 443.445 255.314 442.983C255.519 442.52 257.472 440.837 258.02 440.936Z" fill="#F9E4C7"/>
<path d="M250.095 443.434C250.095 443.434 255.416 447.506 255.587 447.737C255.758 447.969 256.101 448.794 256.718 449.025C257.334 449.256 258.688 449.994 258.688 449.994L255.292 443.214L253.75 441.057L250.095 443.434Z" fill="#F9E4C7"/>
<path d="M252.758 419.272C252.758 419.272 259.171 421.629 259.931 422.274C260.692 422.919 268.274 428.907 268.274 428.907L266.538 431.284C266.538 431.284 258.547 427.762 257.61 427.102C256.673 426.441 249.568 425.278 249.568 425.278L252.758 419.272Z" fill="#F69380"/>
<path d="M276.175 426.881C276.175 426.881 275.01 428.994 273.823 429.787C272.635 430.579 270.649 430.645 270.352 430.513C270.055 430.381 268.274 428.907 268.274 428.907L266.538 431.284C266.538 431.284 269.941 433.199 270.717 433.771C271.493 434.343 271.699 435.422 272.749 435.422C273.8 435.422 273.754 432.45 274.462 431.9C275.17 431.35 275.901 430.337 276.175 429.369C276.449 428.4 276.677 427.74 276.7 427.498C276.723 427.256 276.175 426.881 276.175 426.881Z" fill="#F9E4C7"/>
<path d="M226.779 394.58C226.779 394.58 226.162 386.194 226.265 385.897C226.368 385.599 226.482 384.719 226.516 384.565C226.55 384.411 226.368 384.081 226.368 384.081L226.002 384.224C226.002 384.224 225.979 383.2 225.808 383.168C225.637 383.135 224.678 383.531 224.061 383.553C223.444 383.575 222.987 384.191 222.987 384.422C222.987 384.653 223.353 386.689 223.33 387.438C223.307 388.186 222.908 394.844 222.908 394.844L226.779 394.58ZM246.373 391.708C246.373 391.708 246.35 387.063 246.488 386.711C246.625 386.359 247.264 384.774 247.081 384.312C246.899 383.85 246.602 383.739 246.602 383.739C246.602 383.739 246.507 383.163 246.372 383.165C246.237 383.167 245.871 383.165 245.871 383.165C245.871 383.165 245.712 382.859 245.552 382.793C245.392 382.727 245.027 382.793 245.027 382.793C245.027 382.793 244.798 382.374 244.547 382.374C244.296 382.374 243.976 382.683 243.931 383.013C243.885 383.343 242.835 383.937 242.674 384.047C242.515 384.157 242.674 385.72 243.109 386.204C243.543 386.689 243.154 390.519 243.154 390.519L246.373 391.708Z" fill="#F69380"/>
<path d="M257.814 347.598C257.677 346.937 253.772 331.618 242.948 326.137C232.123 320.656 219.997 321.317 209.241 327.326C198.485 333.334 192.593 344.692 191.908 346.674C191.223 348.654 190.812 350.57 191.086 350.899C191.36 351.23 206.501 346.277 207.391 345.155C208.282 344.032 209.994 339.872 209.994 339.872C209.994 339.872 213.488 340.268 217.188 345.551C220.887 350.834 224.655 358.428 228.149 359.484C231.644 360.54 233.425 357.569 235.48 355.324C237.535 353.078 240.687 350.305 245.071 349.645C249.456 348.984 255.553 351.097 256.992 350.635C258.431 350.173 257.814 347.598 257.814 347.598Z" fill="#3C468E"/>
<path d="M219.266 327.435C219.266 327.435 217.53 328.536 215.749 330.473C213.968 332.41 213.466 333.643 213.466 333.643C213.466 333.643 218.946 337.429 222.646 341.567C226.346 345.705 229.406 350.283 231.415 352.176C233.425 354.069 235.48 355.324 235.48 355.324C235.48 355.324 237.14 353.578 238.027 352.903C238.913 352.227 241.359 350.784 241.359 350.784C241.359 350.784 236.759 346.497 234.247 343.195C231.735 339.894 222.372 328.624 219.266 327.435ZM198.945 338.483C202.434 333.309 204.951 330.221 205.054 330.096C206.358 329.095 207.753 328.157 209.245 327.323C212.374 325.575 215.619 324.283 218.914 323.46C218.744 323.568 212.668 327.427 207.715 333.156C202.691 338.967 199.823 348.29 199.823 348.291C199.822 348.291 199.821 348.291 199.82 348.292L194.306 350.093C194.303 350.094 194.301 350.094 194.298 350.095C194.299 350.091 195.384 343.763 198.945 338.483Z" fill="#F05E6B"/>
<path d="M240.926 347.201C241.04 347.201 241.132 347.113 241.132 347.003V344.296C241.132 344.187 241.04 344.098 240.926 344.098C240.813 344.098 240.721 344.187 240.721 344.296V347.003C240.721 347.113 240.813 347.201 240.926 347.201Z" fill="black"/>
<path d="M242.571 346.244C242.664 346.244 242.749 346.182 242.771 346.091C242.796 345.984 242.728 345.878 242.617 345.853L239.671 345.192C239.558 345.166 239.45 345.234 239.424 345.34C239.399 345.447 239.467 345.553 239.578 345.578L242.524 346.239C242.54 346.242 242.556 346.244 242.571 346.244ZM237.843 343.954C237.957 343.954 238.049 343.866 238.049 343.756V341.049C238.049 340.94 237.957 340.851 237.843 340.851C237.73 340.851 237.638 340.94 237.638 341.049V343.756C237.638 343.866 237.73 343.954 237.843 343.954Z" fill="black"/>
<path d="M239.488 342.997C239.581 342.997 239.666 342.935 239.688 342.844C239.713 342.737 239.645 342.631 239.534 342.606L236.588 341.945C236.477 341.92 236.367 341.988 236.341 342.094C236.316 342.2 236.384 342.306 236.495 342.331L239.441 342.992C239.457 342.995 239.473 342.997 239.488 342.997ZM233.048 338.16C233.161 338.16 233.253 338.071 233.253 337.962V335.254C233.253 335.145 233.161 335.056 233.048 335.056C232.934 335.056 232.842 335.145 232.842 335.254V337.962C232.842 338.071 232.934 338.16 233.048 338.16Z" fill="black"/>
<path d="M234.692 337.202C234.786 337.202 234.87 337.141 234.892 337.049C234.918 336.942 234.849 336.836 234.738 336.811L231.793 336.151C231.681 336.125 231.572 336.193 231.546 336.299C231.52 336.406 231.589 336.512 231.7 336.537L234.646 337.197C234.661 337.201 234.677 337.202 234.692 337.202ZM230.102 335.452C230.215 335.452 230.307 335.364 230.307 335.254V332.547C230.307 332.438 230.215 332.349 230.102 332.349C229.989 332.349 229.897 332.438 229.897 332.547V335.254C229.897 335.364 229.989 335.452 230.102 335.452Z" fill="black"/>
<path d="M231.746 334.495C231.839 334.495 231.924 334.433 231.946 334.342C231.972 334.235 231.903 334.129 231.792 334.104L228.846 333.443C228.732 333.418 228.625 333.486 228.6 333.592C228.574 333.698 228.642 333.804 228.753 333.829L231.699 334.49C231.715 334.494 231.731 334.495 231.746 334.495ZM226.54 331.688C226.653 331.688 226.745 331.6 226.745 331.491V328.783C226.745 328.674 226.653 328.585 226.54 328.585C226.426 328.585 226.334 328.674 226.334 328.783V331.491C226.334 331.6 226.426 331.688 226.54 331.688Z" fill="black"/>
<path d="M228.183 330.731C228.277 330.731 228.362 330.669 228.383 330.578C228.409 330.471 228.341 330.365 228.23 330.34L225.284 329.679C225.169 329.654 225.062 329.722 225.037 329.828C225.011 329.935 225.08 330.041 225.191 330.065L228.137 330.726C228.152 330.73 228.168 330.731 228.183 330.731ZM225.495 391.393C225.528 391.393 225.561 391.382 225.588 391.358C225.643 391.308 225.646 391.225 225.595 391.172C225.584 391.161 225.329 390.901 224.936 390.882C224.56 390.86 224.274 391.016 224.262 391.023C224.196 391.059 224.173 391.139 224.21 391.202C224.247 391.266 224.33 391.289 224.396 391.253C224.398 391.252 224.621 391.128 224.922 391.146C225.202 391.16 225.392 391.35 225.394 391.352C225.422 391.38 225.458 391.393 225.495 391.393ZM235.678 398.601C235.692 398.601 235.705 398.601 235.719 398.6C235.936 398.588 236.09 398.529 236.178 398.429C236.26 398.335 236.252 398.239 236.25 398.221C236.241 398.149 236.171 398.097 236.098 398.106C236.026 398.115 235.974 398.175 235.977 398.244C235.973 398.265 235.915 398.325 235.703 398.337C235.365 398.358 235.093 397.956 235.091 397.952C235.051 397.891 234.966 397.873 234.902 397.912C234.838 397.95 234.819 398.032 234.859 398.094C234.873 398.114 235.197 398.601 235.678 398.601Z" fill="black"/>
<path d="M235.544 399.83C235.544 399.83 235.035 400.151 234.589 399.986C234.144 399.821 233.964 399.268 233.964 399.268C233.964 399.268 235.806 399.707 235.544 399.83Z" fill="white"/>
<path d="M246.368 386.165C246.622 386.165 246.846 386.029 246.861 386.02C246.925 385.981 246.943 385.9 246.903 385.838C246.862 385.777 246.778 385.758 246.714 385.797C246.709 385.8 246.354 386.014 246.151 385.815C246.041 385.685 246.311 384.739 246.728 383.792C246.758 383.724 246.725 383.647 246.655 383.618C246.584 383.592 246.506 383.621 246.475 383.688C246.214 384.282 245.64 385.696 245.957 386.002C246.083 386.124 246.23 386.165 246.368 386.165Z" fill="black"/>
<path d="M245.658 385.75C245.813 385.75 245.963 385.709 246.062 385.665C246.131 385.634 246.16 385.556 246.129 385.49C246.098 385.424 246.017 385.395 245.948 385.424C245.93 385.433 245.514 385.61 245.351 385.327C245.23 385.118 245.591 384.071 245.994 383.221C246.026 383.155 245.995 383.076 245.926 383.046C245.86 383.014 245.776 383.044 245.745 383.111C245.595 383.427 244.861 385.023 245.111 385.455C245.241 385.68 245.455 385.75 245.658 385.75Z" fill="black"/>
<path d="M244.765 385.317C244.991 385.317 245.198 385.253 245.237 385.24C245.308 385.217 245.347 385.142 245.322 385.073C245.297 385.004 245.219 384.966 245.149 384.99C245.015 385.033 244.603 385.12 244.457 384.953C244.365 384.791 244.741 383.732 245.151 382.847C245.182 382.781 245.151 382.703 245.081 382.673C245.014 382.643 244.931 382.673 244.9 382.74C244.546 383.503 243.99 384.829 244.247 385.124C244.379 385.274 244.578 385.317 244.765 385.317Z" fill="black"/>
<path d="M243.893 385.086C244.083 385.086 244.276 385.002 244.391 384.928C244.454 384.887 244.471 384.805 244.429 384.745C244.386 384.685 244.301 384.668 244.239 384.708C244.235 384.71 243.869 384.941 243.721 384.741C243.609 384.59 243.805 383.749 244.058 383.057C244.084 382.988 244.047 382.913 243.975 382.889C243.902 382.864 243.825 382.9 243.8 382.969C243.666 383.336 243.248 384.557 243.498 384.894C243.603 385.037 243.747 385.086 243.893 385.086ZM243.792 425.12C243.805 425.12 243.819 425.118 243.832 425.115C243.905 425.093 243.945 425.019 243.923 424.95L242.804 421.45C242.781 421.38 242.704 421.342 242.633 421.362C242.56 421.384 242.52 421.457 242.542 421.527L243.661 425.027C243.679 425.084 243.734 425.12 243.792 425.12Z" fill="black"/>
<path d="M252.758 419.272L251.235 425.566L249.567 425.278L252.758 419.272Z" fill="#121A41"/>
<path d="M245.071 386.293H245.072C245.147 386.293 245.208 386.234 245.208 386.16C245.208 386.128 245.2 385.338 244.654 385.051C244.587 385.016 244.505 385.039 244.468 385.104C244.432 385.168 244.456 385.248 244.523 385.283C244.926 385.495 244.934 386.155 244.934 386.161C244.934 386.234 244.996 386.293 245.071 386.293ZM257.945 449.734C257.977 449.734 258.009 449.723 258.035 449.701C258.092 449.654 258.098 449.57 258.048 449.515C258.036 449.501 256.766 448.08 256.267 446.413C255.761 444.721 255.429 443.203 255.426 443.187C255.41 443.116 255.339 443.074 255.263 443.085C255.189 443.1 255.141 443.17 255.157 443.242C255.161 443.257 255.494 444.784 256.004 446.486C256.52 448.212 257.788 449.629 257.842 449.688C257.869 449.718 257.907 449.734 257.945 449.734ZM209.994 340.07C210.076 340.07 210.155 340.021 210.186 339.942C210.222 339.852 213.835 330.876 219.374 327.603C224.942 324.314 231.446 322.84 231.511 322.826C231.622 322.801 231.69 322.695 231.665 322.588C231.64 322.483 231.537 322.413 231.418 322.44C231.353 322.454 224.786 323.941 219.159 327.266C213.501 330.609 209.839 339.709 209.802 339.801C209.763 339.903 209.815 340.017 209.921 340.056C209.945 340.066 209.969 340.07 209.994 340.07ZM236.936 397.395C237.011 397.395 237.073 397.336 237.073 397.263C237.073 397.228 237.068 396.927 236.89 396.76C236.814 396.689 236.718 396.652 236.61 396.652C236.606 396.652 236.603 396.652 236.598 396.652C236.206 396.662 235.892 397.032 235.879 397.048C235.831 397.104 235.841 397.187 235.9 397.233C235.958 397.278 236.044 397.27 236.092 397.214C236.16 397.133 236.386 396.921 236.606 396.916C236.645 396.916 236.674 396.925 236.699 396.949C236.775 397.02 236.799 397.191 236.799 397.263C236.799 397.336 236.86 397.395 236.936 397.395ZM233.545 397.288C233.595 397.288 233.643 397.261 233.667 397.215C233.672 397.208 233.788 397.002 234.144 396.913C234.26 396.883 234.306 396.916 234.321 396.928C234.402 396.985 234.425 397.128 234.427 397.163C234.431 397.236 234.499 397.293 234.571 397.288C234.646 397.284 234.705 397.222 234.701 397.149C234.699 397.119 234.679 396.853 234.483 396.715C234.406 396.661 234.273 396.607 234.075 396.657C233.592 396.778 233.429 397.084 233.422 397.097C233.388 397.163 233.416 397.242 233.483 397.274C233.503 397.283 233.524 397.288 233.545 397.288Z" fill="black"/>
</svg>
