<svg width="46" height="46" viewBox="0 0 46 46" fill="none" xmlns="http://www.w3.org/2000/svg">
<circle cx="23" cy="23" r="23" fill="#E7EFF3"/>
<path fill-rule="evenodd" clip-rule="evenodd" d="M9.5835 25.8246C9.5835 31.6743 14.3259 36.4168 20.1756 36.4168C26.0253 36.4168 30.7677 31.6743 30.7677 25.8246C30.7677 19.975 26.0253 15.2325 20.1756 15.2325C14.3259 15.2325 9.5835 19.975 9.5835 25.8246ZM27.9431 25.8246C27.9431 30.1152 24.4661 33.5922 20.1756 33.5922C15.8851 33.5922 12.4081 30.1152 12.4081 25.8246C12.4081 21.5341 15.8851 18.0571 20.1756 18.0571C24.4661 18.0571 27.9431 21.5341 27.9431 25.8246Z" fill="#FBCC5C"/>
<path fill-rule="evenodd" clip-rule="evenodd" d="M15.2324 20.1755C15.2324 26.0251 19.9749 30.7676 25.8245 30.7676C31.6742 30.7676 36.4166 26.0251 36.4166 20.1755C36.4166 14.3258 31.6742 9.58337 25.8245 9.58337C19.9749 9.58337 15.2324 14.3258 15.2324 20.1755ZM33.5921 20.1755C33.5921 24.466 30.115 27.943 25.8245 27.943C21.534 27.943 18.057 24.466 18.057 20.1755C18.057 15.885 21.534 12.4079 25.8245 12.4079C30.115 12.4079 33.5921 15.885 33.5921 20.1755Z" fill="#35D07F"/>
<path fill-rule="evenodd" clip-rule="evenodd" d="M15.2324 19.8253C16.125 19.0909 17.1672 18.5655 18.2858 18.2859C18.5654 17.1645 19.0908 16.1223 19.8252 15.2325C18.5315 15.2749 17.252 15.5545 16.0572 16.0573C15.5516 17.2521 15.272 18.5288 15.2324 19.8253ZM27.7142 27.7143C27.4345 28.8356 26.9092 29.8779 26.1748 30.7676C27.4712 30.7281 28.7479 30.4485 29.9427 29.9457C30.4483 28.7481 30.728 27.4714 30.7675 26.1749C29.8749 26.9093 28.8327 27.4346 27.7142 27.7143Z" fill="#5EA33B"/>
</svg>
