<svg width="46" height="46" viewBox="0 0 46 46" fill="none" xmlns="http://www.w3.org/2000/svg">
<g clip-path="url(#clip0_10_21567)">
<path d="M23 46C35.7025 46 46 35.7025 46 23C46 10.2975 35.7025 0 23 0C10.2975 0 0 10.2975 0 23C0 35.7025 10.2975 46 23 46Z" fill="#45CD85"/>
<path d="M20.4701 35.8801C24.9781 35.8801 28.7961 32.9821 30.2221 28.9801H27.4161C26.1741 31.5561 23.5061 33.3041 20.4701 33.3041C16.1921 33.3041 12.6961 29.8081 12.6961 25.5301C12.6961 22.4941 14.4441 19.8261 17.0201 18.5841V15.7781C13.0181 17.2041 10.1201 21.0221 10.1201 25.5301C10.1201 31.2341 14.7661 35.8801 20.4701 35.8801ZM29.1181 25.9901C30.6361 25.9901 32.0621 25.5761 33.2581 24.8401V22.4481C32.1081 23.3221 30.7281 23.8741 29.1641 23.8741C26.9561 23.8741 25.2081 22.8161 24.3801 21.0681H30.4981L31.0501 19.2281H23.8281C23.7821 18.9521 23.7821 18.7221 23.7821 18.4461C23.7821 18.1701 23.7821 17.8941 23.8281 17.6181H31.5561L32.1081 15.7781H24.3341C25.1621 13.9841 26.8641 12.9261 29.1641 12.9261C30.4061 12.9261 31.6021 13.2481 32.7061 13.8461L33.3501 11.7761C32.1081 11.1321 30.6361 10.8101 29.1641 10.8101C25.7141 10.8101 23.0001 12.7881 21.9881 15.7321H19.9641L19.4121 17.4801H21.6201C21.5741 17.8021 21.5741 18.1241 21.5741 18.4461C21.5741 18.7681 21.5741 19.0441 21.6201 19.3661H19.9641L19.4121 21.1141H22.0341C23.0001 24.0581 25.6681 25.9901 29.1181 25.9901Z" fill="white"/>
</g>
<defs>
<clipPath id="clip0_10_21567">
<rect width="46" height="46" fill="white"/>
</clipPath>
</defs>
</svg>
