<svg width="46" height="46" viewBox="0 0 46 46" fill="none" xmlns="http://www.w3.org/2000/svg">
<g clip-path="url(#clip0_10_21578)">
<path d="M23 46C35.7025 46 46 35.7025 46 23C46 10.2975 35.7025 0 23 0C10.2975 0 0 10.2975 0 23C0 35.7025 10.2975 46 23 46Z" fill="#45CD85"/>
<path d="M20.0102 35.834C24.5182 35.834 28.3362 32.936 29.7622 28.934H26.9562C25.7142 31.51 23.0462 33.258 20.0102 33.258C15.7322 33.258 12.2362 29.762 12.2362 25.484C12.2362 22.448 13.9842 19.78 16.5602 18.538V15.732C12.5582 17.158 9.66016 20.976 9.66016 25.484C9.66016 31.188 14.3062 35.834 20.0102 35.834ZM19.3202 25.622H21.6202V19.872H21.8042C22.1262 19.872 22.4942 19.826 22.7702 19.826L24.7022 25.622H27.2322L24.6562 19.228C25.8522 18.584 26.7262 17.112 26.7262 15.272C26.7262 12.558 25.0242 11.086 21.7582 11.086H19.3202V25.622ZM21.6202 17.94V13.064H21.9882C23.6902 13.064 24.4262 13.8 24.4262 15.502C24.4262 17.158 23.6902 17.94 21.9882 17.94H21.6202ZM31.5562 23.368L32.0162 19.642C32.7522 20.01 33.2122 20.562 33.2122 21.436C33.2122 22.494 32.6602 23.276 31.5562 23.368ZM29.7622 26.956H31.3262L31.5102 25.392C33.7182 25.254 35.2362 23.552 35.2362 21.298C35.2362 19.596 34.4082 18.17 32.3842 17.434L32.8442 13.432C33.3962 13.57 33.9942 13.846 34.5922 14.26V11.96C34.1322 11.684 33.6262 11.5 33.1202 11.408L33.3502 9.75195H31.7862L31.6482 11.316C29.4402 11.5 28.0602 13.11 28.0602 15.318C28.0602 17.48 29.3482 18.722 30.7742 19.274L30.3142 23.184C29.6702 23 28.9342 22.678 28.1062 22.172V24.518C28.7502 24.84 29.3942 25.116 29.9922 25.254L29.7622 26.956ZM31.1422 17.02C30.4062 16.652 30.0842 16.054 30.0842 15.226C30.0842 14.122 30.5902 13.432 31.6022 13.294L31.1422 17.02Z" fill="white"/>
</g>
<defs>
<clipPath id="clip0_10_21578">
<rect width="46" height="46" fill="white"/>
</clipPath>
</defs>
</svg>
