<svg width="46" height="46" viewBox="0 0 46 46" fill="none" xmlns="http://www.w3.org/2000/svg">
<path d="M23 46C35.7026 46 46 35.7026 46 23C46 10.2974 35.7026 0 23 0C10.2974 0 0 10.2974 0 23C0 35.7026 10.2974 46 23 46Z" fill="#45CD85"/>
<path fill-rule="evenodd" clip-rule="evenodd" d="M26.323 26.053H28.1509V24.6177C30.8469 24.2936 32.5833 22.7194 32.5833 20.5896C32.5833 17.6265 30.2528 16.9783 28.0595 16.5616V12.6261C29.1105 12.7187 30.2528 13.0428 31.3038 13.5521V11.2371C30.2985 10.8667 29.2018 10.6352 28.1509 10.5889V9.19995H26.323V10.5889C23.5356 10.913 21.9363 12.4872 21.9363 14.4781C21.9363 17.4876 24.221 18.1821 26.4144 18.5988V22.5342C25.0893 22.349 23.6727 21.7934 22.0277 20.9137V23.3676C23.4442 24.0621 24.9065 24.5251 26.323 24.6177V26.053ZM31.8522 28.3217C30.4356 32.3497 26.6429 35.2666 22.1648 35.2666C16.4985 35.2666 11.8833 30.5904 11.8833 24.8492C11.8833 20.3119 14.7621 16.469 18.7376 15.0337V17.858C16.1787 19.1081 14.4422 21.7934 14.4422 24.8492C14.4422 29.1551 17.9151 32.6738 22.1648 32.6738C25.1807 32.6738 27.831 30.9145 29.0648 28.3217H31.8522ZM28.0595 18.7377V22.5342C29.476 22.349 30.3442 21.6082 30.3442 20.5896C30.3442 19.4785 29.3389 19.0618 28.0595 18.7377ZM24.1754 14.4781C24.1754 15.6356 25.135 16.0986 26.4144 16.3764V12.6261C24.9979 12.765 24.1754 13.4132 24.1754 14.4781Z" fill="white"/>
</svg>
