<svg width="292" height="195" viewBox="0 0 292 195" fill="none" xmlns="http://www.w3.org/2000/svg">
<path d="M34.7148 76.7871H49.7295C49.7295 76.7871 52.1122 75.2558 51.4377 73.0942C50.7631 70.9327 46.3578 72.1036 46.3578 72.1036C46.3578 72.1036 45.1889 68.0959 41.5924 67.9609C37.9959 67.8258 37.5015 71.8336 37.5015 71.8336C37.5015 71.8336 34.3099 70.4374 33.1857 72.149C32.0625 73.8601 34.7148 76.7871 34.7148 76.7871ZM153.501 79.2221H168.516C168.516 79.2221 170.898 77.6909 170.224 75.5293C169.549 73.3677 165.144 74.5387 165.144 74.5387C165.144 74.5387 163.975 70.531 160.378 70.3959C156.782 70.2609 156.288 74.2686 156.288 74.2686C156.288 74.2686 153.096 72.8724 151.972 74.584C150.849 76.2952 153.501 79.2221 153.501 79.2221ZM90.1087 40.3484H126.731C126.731 40.3484 132.446 35.0956 129.589 29.8432C126.731 24.5904 121.987 26.7583 121.987 26.7583C121.987 26.7583 119.406 16.2532 109.502 16.9201C99.5972 17.587 98.0155 27.2585 98.0155 27.2585C98.0155 27.2585 89.8585 24.4237 86.6962 29.2597C83.5333 34.0957 90.1087 40.3484 90.1087 40.3484ZM229.295 83.323H256.692C256.692 83.323 260.181 80.1367 258.744 77.6699C257.307 75.2032 251.869 76.3337 251.869 76.3337C251.869 76.3337 250.433 68.9329 243.045 69.5496C235.658 70.1663 235.145 77.1556 235.145 77.1556C235.145 77.1556 230.219 74.1745 228.065 76.9499C225.909 79.7252 229.295 83.323 229.295 83.323Z" fill="#F9E4C7"/>
<path d="M114.16 176.742C114.16 176.742 112.324 173.93 111.296 174.788C110.269 175.646 114.071 177.468 114.071 177.468C114.071 177.468 117.873 175.914 117.736 175.042C117.599 174.17 114.16 176.742 114.16 176.742Z" fill="#F05E6B"/>
<path d="M114.027 179.567C114.027 179.567 111.991 176.898 111.028 177.829C110.066 178.76 113.991 180.298 113.991 180.298C113.991 180.298 117.67 178.469 117.469 177.61C117.269 176.75 114.027 179.567 114.027 179.567Z" fill="#F05E6B"/>
<path d="M114.166 182.239C114.166 182.239 111.913 179.749 111.032 180.757C110.151 181.765 114.19 182.97 114.19 182.97C114.19 182.97 117.704 180.84 117.433 180C117.162 179.161 114.166 182.239 114.166 182.239Z" fill="#F05E6B"/>
<path d="M184.962 171.44C184.962 171.44 184.259 170.567 184.636 168.68C185.013 166.793 186.622 165.077 186.622 165.077C186.622 165.077 186.999 166.655 186.622 167.993C186.246 169.332 185.365 171.058 185.365 171.058C185.365 171.058 187.924 170.018 189.705 170.91C191.487 171.802 191.692 172.351 191.692 172.351C191.692 172.351 189.466 172.488 187.89 172.351C186.314 172.214 184.962 171.44 184.962 171.44Z" fill="#FEC76D"/>
<path d="M182.502 173.54C182.502 173.54 181.587 172.386 181.416 170.67C181.244 168.955 182.649 166.587 182.649 166.587C182.649 166.587 183.437 169.263 183.231 170.739C183.026 172.215 182.845 173.267 182.845 173.267C182.845 173.267 185.423 173.21 186.417 173.827C187.41 174.445 188.541 174.891 188.541 174.891C188.541 174.891 187.684 175.406 185.527 174.891C183.368 174.376 182.502 173.54 182.502 173.54ZM178.32 176.274C178.32 176.274 179.532 175.062 179.566 173.484C179.6 171.905 179.394 169.846 179.394 169.846C179.394 169.846 177.716 172.18 177.613 173.861C177.511 175.542 177.801 176.534 177.801 176.534C177.801 176.534 178.949 177.121 180.696 177.086C182.443 177.052 183.745 176.366 183.745 176.366C183.745 176.366 182.204 175.679 181.107 175.748C180.011 175.817 178.32 176.274 178.32 176.274Z" fill="#FEC76D"/>
<path d="M179.688 180.463C179.688 180.463 179.806 179.488 180.286 178.493C180.765 177.498 182.067 176.4 182.067 176.4C182.067 176.4 181.964 177.326 181.656 178.115C181.348 178.905 180.168 180.137 180.168 180.137C180.168 180.137 181.176 180.167 182.272 180.462C183.368 180.758 184.525 181.547 184.525 181.547C184.525 181.547 182.752 181.821 181.656 181.547C180.56 181.273 179.688 180.463 179.688 180.463ZM184.525 178.257C184.525 178.257 184.95 176.605 185.869 175.851C186.788 175.098 188.109 174.707 188.109 174.707C188.109 174.707 187.65 175.988 187.102 176.675C186.554 177.361 184.971 178.154 184.971 178.154C184.971 178.154 185.938 178.802 186.965 179.626C187.993 180.449 188.335 181.513 188.335 181.513C188.335 181.513 186.588 181.605 185.629 180.255C184.67 178.905 184.525 178.257 184.525 178.257Z" fill="#F05E6B"/>
<path d="M173.948 178.151C173.852 178.151 173.765 178.082 173.746 177.983C173.725 177.872 173.798 177.764 173.909 177.742C173.945 177.736 177.513 177.025 181.601 173.971C185.703 170.905 187.704 168.207 187.724 168.181C187.792 168.089 187.921 168.069 188.012 168.137C188.103 168.204 188.123 168.332 188.056 168.424C188.035 168.451 186.003 171.195 181.847 174.301C177.678 177.415 174.023 178.14 173.986 178.147C173.974 178.15 173.961 178.151 173.948 178.151ZM177.305 182.851C177.262 182.851 177.219 182.838 177.182 182.81C177.091 182.741 177.073 182.612 177.141 182.521C177.215 182.423 178.998 180.092 182.539 178.679C186.08 177.267 188.739 177.721 188.851 177.741C188.963 177.761 189.037 177.869 189.017 177.98C188.997 178.091 188.892 178.167 188.778 178.147C188.752 178.143 186.116 177.696 182.69 179.062C179.262 180.429 177.486 182.746 177.469 182.769C177.429 182.823 177.367 182.851 177.305 182.851Z" fill="black"/>
<path d="M116.366 185.562L179.395 183.64C179.395 183.64 178.481 180.987 177.065 180.026C175.65 179.065 173.731 179.385 173.731 179.385C173.731 179.385 176.7 176.778 176.061 175.634C175.421 174.49 171.995 175.862 172.133 175.634C172.27 175.405 173.777 173.941 173 173.712C172.224 173.483 170.306 175.725 170.306 175.725C170.306 175.725 169.894 173.803 167.931 173.208C165.967 172.613 164.779 172.98 164.779 172.98C164.779 172.98 167.52 171.013 166.789 170.234C166.058 169.457 163.866 172.11 163.866 172.11C163.866 172.11 164.916 168.816 163.728 168.496C162.541 168.176 162.495 171.653 162.495 171.653C162.495 171.653 160.348 168.679 159.846 169.182C159.344 169.686 161.947 172.614 161.947 172.614C161.947 172.614 159.435 172.111 158.293 172.568C157.152 173.026 156.448 173.986 156.448 173.986C156.448 173.986 156.056 172.248 154.091 172.568C152.128 172.888 151.305 175.496 151.305 175.496C151.305 175.496 151.259 166.025 143.952 165.385C136.644 164.744 128.971 176.594 128.971 176.594C128.971 176.594 128.834 174.581 128.217 174.409C127.601 174.238 125.991 178.184 125.991 178.184C125.991 178.184 123.97 173.14 123.353 173.175C122.736 173.209 123.832 180.037 123.832 180.037C123.832 180.037 119.859 172.865 119.277 173.14C118.694 173.414 121.675 181.272 121.675 181.272C121.675 181.272 119.619 180.552 118.009 182.233C116.4 183.915 116.366 185.562 116.366 185.562Z" fill="#66C3A0"/>
<path d="M144.227 182.886C144.227 182.886 142.628 181.033 142.993 180.712C143.359 180.392 145.46 182.062 145.46 182.062C145.46 182.062 145.962 179.362 146.511 179.545C147.059 179.728 146.967 181.81 146.967 181.81C146.967 181.81 148.589 179.729 149.091 179.911C149.593 180.094 148.177 182.108 148.177 182.108C148.177 182.108 149.616 181.238 149.867 181.467C150.118 181.696 149.205 182.725 149.205 182.725C149.205 182.725 151.443 181.833 151.488 182.474C151.534 183.114 150.026 184.536 150.026 184.536L143.68 184.729C143.68 184.729 141.646 184.052 141.943 183.343C142.24 182.634 144.227 182.886 144.227 182.886Z" fill="#2F7559"/>
<path d="M137.901 170.784C137.901 170.784 138.198 169.572 138.974 169.961C139.75 170.35 139.385 171.333 139.385 171.333C139.385 171.333 141.144 171.15 141.053 171.905C140.961 172.66 139.796 172.729 139.796 172.729C139.796 172.729 140.915 173.826 140.116 174.307C139.317 174.787 138.517 173.872 138.517 173.872C138.517 173.872 137.878 175.382 137.033 174.97C136.188 174.558 136.805 173.552 136.805 173.552C136.805 173.552 135.48 173.575 135.412 172.729C135.344 171.882 136.759 171.974 136.759 171.974C136.759 171.974 135.595 170.99 136.28 170.327C136.965 169.664 137.901 170.784 137.901 170.784Z" fill="#FEC76D"/>
<path d="M138.888 172.146C138.888 172.496 138.605 172.78 138.255 172.78C137.905 172.78 137.621 172.496 137.621 172.146C137.621 171.795 137.905 171.511 138.255 171.511C138.605 171.511 138.888 171.795 138.888 172.146ZM168.453 175.119C168.453 175.47 168.17 175.754 167.82 175.754C167.47 175.754 167.186 175.47 167.186 175.119C167.186 174.769 167.47 174.485 167.82 174.485C168.17 174.485 168.453 174.769 168.453 175.119ZM169.721 180.256C169.721 180.606 169.437 180.89 169.087 180.89C168.737 180.89 168.453 180.606 168.453 180.256C168.453 179.905 168.737 179.621 169.087 179.621C169.437 179.621 169.721 179.905 169.721 180.256ZM141.292 178.745C141.292 179.096 141.008 179.38 140.658 179.38C140.308 179.38 140.025 179.096 140.025 178.745C140.025 178.395 140.308 178.111 140.658 178.111C141.008 178.111 141.292 178.395 141.292 178.745ZM147.335 169.847C147.335 170.197 147.051 170.481 146.701 170.481C146.351 170.481 146.068 170.197 146.068 169.847C146.068 169.496 146.351 169.212 146.701 169.212C147.051 169.212 147.335 169.496 147.335 169.847ZM157.069 182.304C157.069 182.655 156.786 182.939 156.436 182.939C156.086 182.939 155.802 182.655 155.802 182.304C155.802 181.954 156.086 181.669 156.436 181.669C156.786 181.669 157.069 181.954 157.069 182.304ZM126.235 181.669C126.235 182.02 125.951 182.304 125.601 182.304C125.251 182.304 124.967 182.02 124.967 181.669C124.967 181.319 125.251 181.035 125.601 181.035C125.951 181.035 126.235 181.319 126.235 181.669Z" fill="#F05E6B"/>
<path d="M114.687 185.768C114.592 185.768 114.507 185.703 114.487 185.606C114.48 185.576 113.831 182.559 113.797 178.942C113.763 175.298 115.309 172.088 115.325 172.055C115.375 171.953 115.496 171.912 115.6 171.961C115.702 172.01 115.744 172.134 115.694 172.236C115.679 172.267 114.175 175.394 114.208 178.937C114.242 182.51 114.882 185.488 114.888 185.518C114.912 185.629 114.842 185.739 114.732 185.763C114.716 185.766 114.702 185.768 114.687 185.768Z" fill="black"/>
<path d="M114.636 173.854C114.636 173.854 115.567 169.975 117.427 169.094C119.288 168.212 114.636 173.854 114.636 173.854Z" fill="#F05E6B"/>
<path d="M77.2014 112.219C77.1294 112.219 77.0612 112.181 77.0242 112.117C76.9819 112.045 76.9873 111.955 77.0374 111.888L80.9867 106.672C81.0212 106.626 81.0738 106.597 81.1317 106.592C81.1818 106.586 81.2456 106.605 81.2884 106.645L85.7443 110.694C85.8032 110.747 85.8261 110.83 85.8027 110.907C85.7794 110.983 85.7132 111.039 85.6348 111.05L77.2296 112.217C77.2204 112.218 77.2106 112.219 77.2014 112.219ZM81.1794 107.1L77.6657 111.74L85.1428 110.703L81.1794 107.1ZM116.231 112.219C116.209 112.219 116.186 112.215 116.165 112.208L109.451 109.941C109.367 109.912 109.311 109.834 109.311 109.746C109.311 109.657 109.368 109.578 109.451 109.551L115.686 107.457C115.745 107.439 115.809 107.447 115.862 107.479C115.914 107.512 115.948 107.568 115.955 107.63L116.435 111.99C116.442 112.06 116.414 112.129 116.359 112.173C116.323 112.203 116.276 112.219 116.231 112.219ZM110.161 109.746L115.991 111.715L115.574 107.928L110.161 109.746ZM81.1945 103.64C81.1736 103.64 81.1521 103.637 81.1317 103.63C81.0684 103.61 81.0193 103.561 80.9988 103.497L73.3538 79.8896C73.3183 79.7819 73.3776 79.6654 73.4862 79.6307C73.5942 79.5947 73.71 79.6546 73.7446 79.7633L81.3016 103.098L97.9533 90.7102C98.0448 90.6434 98.1733 90.6614 98.241 90.7526C98.3091 90.8437 98.2896 90.9729 98.1986 91.0407L81.3176 103.6C81.2811 103.626 81.2378 103.64 81.1945 103.64Z" fill="black"/>
<path d="M81.1945 103.64C81.1785 103.64 81.1619 103.638 81.1454 103.634C81.0592 103.613 80.996 103.538 80.9896 103.449L79.3734 81.4203C79.3647 81.3072 79.4498 81.2088 79.5632 81.2C79.679 81.1893 79.7754 81.277 79.7832 81.3901L81.3532 102.787L91.4617 86.444C91.5211 86.3465 91.6481 86.3173 91.7445 86.3777C91.8413 86.4372 91.871 86.5644 91.8107 86.661L81.3692 103.543C81.3308 103.605 81.2646 103.64 81.1945 103.64ZM117.076 105.836C117.029 105.836 116.982 105.82 116.946 105.789C116.894 105.746 116.867 105.682 116.872 105.615L118.424 84.4097C118.432 84.2966 118.531 84.201 118.644 84.2196C118.757 84.2283 118.842 84.3268 118.833 84.4399L117.302 105.358L142.554 98.7061C142.666 98.6744 142.776 98.7427 142.805 98.8524C142.834 98.9621 142.769 99.0747 142.659 99.1039L117.129 105.829C117.111 105.834 117.094 105.836 117.076 105.836Z" fill="black"/>
<path d="M117.076 105.836C117.026 105.836 116.975 105.818 116.936 105.781C116.871 105.72 116.852 105.624 116.891 105.543L125.568 87.0822C125.617 86.9793 125.74 86.9359 125.842 86.9842C125.944 87.0324 125.988 87.1553 125.94 87.2581L117.536 105.135L137.574 93.853C137.671 93.798 137.797 93.8321 137.854 93.932C137.909 94.031 137.874 94.1568 137.775 94.2123L117.177 105.81C117.145 105.828 117.11 105.836 117.076 105.836Z" fill="black"/>
<path d="M90.0597 114.3C90.0597 114.3 89.5973 113.145 90.4879 112.441C91.3785 111.738 95.2665 109.439 96.0199 109.696C96.7737 109.954 96.8248 110.64 96.8248 110.64C96.8248 110.64 97.5957 109.371 97.8697 109.508C98.1437 109.645 97.75 110.194 97.75 110.194C97.75 110.194 99.4114 109.508 99.4625 109.954C99.5141 110.4 98.7773 110.846 98.7773 110.846C98.7773 110.846 99.9589 110.983 100.182 111.446C100.404 111.91 99.7185 114.67 99.7185 114.67C99.7185 114.67 96.945 116.422 94.9925 116.422C93.04 116.422 90.0597 114.3 90.0597 114.3Z" fill="#121A41"/>
<path d="M76.7688 119.768L82.7976 116.542L83.1402 121.552C83.1402 121.552 88.6211 119.144 89.5117 119.047C90.4023 118.95 99.1258 118.67 99.1258 118.67L108.489 121.14L109.413 115.581L116.23 118.978C116.23 118.978 114.963 127.831 113.421 128.86C111.88 129.89 106.364 128.346 106.364 128.346C106.364 128.346 103.35 134.659 102.894 136.489C102.437 138.319 101.798 142.254 101.798 142.254C101.798 142.254 97.9154 142.162 91.9324 140.241C85.9493 138.319 79.6465 133.104 79.6465 133.104L85.995 126.836C85.995 126.836 79.0527 126.699 78.0935 126.333C77.1343 125.967 76.7688 119.768 76.7688 119.768Z" fill="#E05959"/>
<path d="M90.0596 114.3C90.0596 114.3 89.6941 117.434 90.5618 119.356C91.4295 121.277 92.8452 121.094 93.3708 121.048C93.896 121.002 94.2386 120.82 94.2386 120.82L94.7179 121.712L99.1252 118.669L97.8005 116.839C97.8005 116.839 99.6274 116.839 99.7189 114.963C99.8104 113.087 98.1431 112.31 97.0929 112.882C96.0426 113.453 95.9969 115.489 95.9969 115.489C95.9969 115.489 95.3345 115.398 95.0606 114.917C94.7866 114.437 94.2843 113.545 94.2843 113.545C94.2843 113.545 92.5717 114.689 90.0596 114.3Z" fill="#F69380"/>
<path d="M102.425 119.54L101.661 121.712L99.1263 122.261L98.9662 125.647L88.9866 129.284L99.1263 118.67L102.425 119.54Z" fill="#AC4848"/>
<path d="M99.1262 118.67L99.7234 118.827C99.7234 118.827 95.7974 123.714 95.7974 123.662C95.7974 123.61 94.7185 121.712 94.7185 121.712L99.1262 118.67Z" fill="#CCB196"/>
<path d="M92.6175 121.166C92.6175 121.166 88.9422 129.33 88.9865 129.284C89.0308 129.238 95.2757 122.7 95.2757 122.7L94.7184 121.712L94.2391 120.82L92.6175 121.166Z" fill="#F9E4C7"/>
<path d="M77.8193 148.339C77.8193 148.339 77.1458 150.341 79.5436 153.189C81.9414 156.037 83.3527 156.207 83.5742 155.706C83.7956 155.204 84.5105 151.645 82.4208 149.826C80.3315 148.007 77.8193 148.339 77.8193 148.339Z" fill="#121A41"/>
<path d="M79.4668 149.112L78.2078 153.029L81.1993 156.414L83.3523 153.919C83.3523 153.919 83.7801 152.068 82.5469 150.787C81.3132 149.506 79.4668 149.112 79.4668 149.112Z" fill="#F69380"/>
<path d="M90.4178 118.991L88.53 120.82L90.174 122.101L88.7812 122.879L88.9865 129.284L92.6175 121.166L90.4178 118.991Z" fill="#AC4848"/>
<path d="M60.0068 143.855C60.0068 143.855 67.0864 132.006 68.8218 131.731C70.5573 131.457 78.2306 135.94 78.2306 135.94L82.0669 133.744L85.0814 133.378L86.0863 136.077C86.0863 136.077 90.6079 138.64 92.6174 139.6C94.6268 140.561 98.0257 141.786 98.0257 141.786L98.4637 146.783C98.4637 146.783 95.5408 148.705 93.0744 148.842C90.6079 148.979 87.0913 147.744 87.0913 147.744L83.5746 155.705C83.5746 155.705 83.7119 152.777 81.5194 150.718C79.327 148.659 77.8198 148.339 77.8198 148.339L79.2355 146.143L70.6035 141.385L66.4931 148.522L60.0068 143.855Z" fill="#3C468E"/>
<path d="M79.6463 133.104C79.6463 133.104 78.8701 132.439 78.3674 131.72C77.8651 131 77.4082 129.993 77.4082 129.993C77.4082 129.993 77.1799 131.664 77.2028 132.876C77.2257 134.088 78.2306 135.941 78.2306 135.941L81.1511 134.269L79.6463 133.104ZM92.8501 139.71L98.2127 137.199C98.2127 137.199 100.314 141.682 101.798 142.254C103.282 142.826 105.132 142.517 105.132 142.517L98.4638 146.783L98.0258 141.786C98.0258 141.787 94.0332 140.294 92.8501 139.71Z" fill="#EF7575"/>
<path d="M110.465 116.105C110.465 116.105 110.659 113.431 110.613 112.791C110.567 112.15 110.864 109.977 111.161 109.817C111.458 109.656 111.869 109.817 111.869 109.817C111.869 109.817 112.44 109.743 112.737 109.746C113.034 109.748 113.399 109.931 113.399 109.931C113.399 109.931 113.604 109.84 113.878 109.863C114.152 109.885 114.358 110.183 114.358 110.183C114.358 110.183 115.043 110.068 115.248 110.183C115.454 110.297 115.363 112.036 115.363 112.036L116.231 111.487L116.391 110.732C116.391 110.732 117.03 111.532 117.076 111.83C117.122 112.127 115.386 113.751 115.249 114.095C115.112 114.438 115.083 118.406 115.083 118.406L110.465 116.105ZM78.0486 119.083C78.0486 119.083 78.5503 111.67 78.6871 111.144C78.8243 110.618 79.6463 110.709 79.6463 110.709C79.6463 110.709 79.9661 110.091 80.2172 110.045C80.4683 110 80.6965 110.045 80.6965 110.045C80.6965 110.045 80.8562 109.359 81.5185 109.336C82.1809 109.313 82.2495 109.497 82.2495 109.497C82.2495 109.497 82.8204 109.748 82.9118 110.045C83.0033 110.343 82.9118 110.823 82.9118 110.823C82.9118 110.823 84.1908 111.326 84.3276 111.578C84.4648 111.83 83.437 113.591 83.163 113.888C82.889 114.186 82.067 114.826 82.0212 114.918C81.9755 115.01 82.03 116.953 82.03 116.953L78.0486 119.083Z" fill="#F69380"/>
<path d="M77.2256 155.957L78.2077 153.029L81.1992 156.414L79.235 159.64L77.2256 155.957Z" fill="#E0D5C3"/>
<path d="M53.3157 149.483C53.3157 149.483 56.4445 151.29 57.0383 151.382C57.632 151.474 59.5504 150.81 59.5504 150.81L62.4733 153.189L61.1944 157.65L59.276 156.529L59.4361 155.385L58.0661 155.98C58.0661 155.98 53.1561 150.971 53.0422 150.707C52.9274 150.444 53.3157 149.483 53.3157 149.483Z" fill="#121A41"/>
<path d="M61.1541 144.681L60.2124 148.225L64.3914 150.078L65.8908 148.089L61.1541 144.681Z" fill="#F69380"/>
<path d="M59.55 150.81L60.2124 148.225L64.3914 150.078L62.473 153.189L59.8698 152.608C59.8698 152.608 60.2581 151.428 59.55 150.81Z" fill="#E0D5C3"/>
<path d="M72.6582 80.3069C72.6582 80.3069 81.8489 61.5489 95.7058 57.4314C109.563 53.314 122.077 59.9937 131.577 67.2224C141.077 74.451 143.178 77.7451 143.726 86.5293C144.274 95.3136 142.813 99.9804 142.813 99.9804C142.813 99.9804 138.519 95.6797 131.668 91.4706C124.818 87.2616 117.875 85.3398 117.875 85.3398L118.606 78.0756C118.606 78.0756 113.523 78.5685 108.254 82.4119C102.986 86.2549 97.9624 91.9284 97.9624 91.9284C97.9624 91.9284 92.8471 87.7193 86.0873 85.157C79.3265 82.5947 72.6582 80.3069 72.6582 80.3069Z" fill="#2F7559"/>
<path d="M81.1943 71.0653C81.1943 71.0653 83.1629 72.6209 82.9804 75.7321C82.7979 78.8434 81.6557 81.0849 81.6557 81.0849L91.1102 85.4314C91.1102 85.4314 93.1654 82.6405 97.0475 81.9088C100.93 81.1765 103.35 82.9155 103.35 82.9155C103.35 82.9155 109.471 78.3861 112.211 77.1966C114.951 76.0071 119.062 74.9092 119.062 74.9092C119.062 74.9092 119.747 69.5565 118.331 65.3016C116.915 61.0467 115.316 59.7655 115.316 59.7655C115.316 59.7655 108.178 56.5427 100.747 58.1183C90.6079 60.2682 81.1943 71.0653 81.1943 71.0653Z" fill="#1E513B"/>
<path d="M118.332 65.3006C117.884 63.9551 117.418 62.9085 116.99 62.1046C115.716 61.2437 114.112 60.726 112.365 60.726C108.228 60.726 104.874 63.6037 104.874 67.1541C104.874 70.7046 108.228 73.5823 112.365 73.5823C115.382 73.5823 117.975 72.0481 119.162 69.8422C119.06 68.3743 118.821 66.7719 118.332 65.3006Z" fill="#2F7559"/>
<path d="M137.307 71.9614C135.782 70.5252 133.902 68.992 131.577 67.2219C127.554 64.1609 122.989 61.2017 118.012 59.1157C118.053 59.1659 120.417 62.0997 121.232 67.5422C122.054 73.0324 121.711 76.6009 121.711 76.6009C121.711 76.6009 123.801 77.1157 124.726 79.7579C125.65 82.4002 125.24 84.8362 125.24 84.8362L136.144 91.2873C136.144 91.2873 137.103 89.2744 138.519 88.6338C139.935 87.9933 141.259 87.8105 141.259 87.8105C141.259 87.8105 141.807 81.4257 140.574 78.0756C139.35 74.7498 137.336 72.0013 137.307 71.9614Z" fill="#1E513B"/>
<path d="M81.1507 107.003C81.1498 107.003 81.1493 107.003 81.1483 107.003C81.0349 107.001 80.9439 106.908 80.9454 106.794L80.9887 103.431C80.9901 103.319 81.0816 103.228 81.1941 103.228C81.195 103.228 81.1955 103.228 81.1965 103.228C81.3099 103.23 81.4009 103.323 81.3994 103.437L81.3561 106.8C81.3547 106.912 81.2632 107.003 81.1507 107.003ZM115.751 107.858C115.712 107.858 115.672 107.847 115.638 107.824C115.543 107.762 115.517 107.635 115.579 107.539L116.904 105.517C116.967 105.422 117.094 105.396 117.189 105.458C117.284 105.521 117.31 105.648 117.248 105.744L115.923 107.765C115.883 107.825 115.818 107.858 115.751 107.858ZM85.0815 133.516C85.0475 133.516 85.0134 133.503 84.9867 133.478C84.9321 133.425 84.9297 133.339 84.9823 133.284L88.8873 129.189C88.9403 129.135 89.027 129.133 89.081 129.185C89.1355 129.237 89.1379 129.324 89.0854 129.379L85.1803 133.474C85.1541 133.501 85.1176 133.516 85.0815 133.516ZM79.2352 146.281C79.2119 146.281 79.1875 146.275 79.1661 146.262C79.1009 146.224 79.079 146.14 79.117 146.075C79.3389 145.694 84.5642 136.769 84.9798 136.307C85.4402 135.795 86.0899 135.938 86.1172 135.945C86.1907 135.961 86.2359 136.035 86.2194 136.109C86.2028 136.182 86.1303 136.228 86.0554 136.212C86.0349 136.206 85.5337 136.1 85.1828 136.491C84.8655 136.845 81.2306 143.006 79.353 146.213C79.3282 146.256 79.2824 146.281 79.2352 146.281ZM87.091 147.882C87.0696 147.882 87.0482 147.877 87.0282 147.867C86.9606 147.832 86.9348 147.749 86.9688 147.682L89.481 142.787C89.5156 142.719 89.5993 142.692 89.6655 142.727C89.7331 142.762 89.7589 142.845 89.7248 142.912L87.2127 147.807C87.1883 147.854 87.1406 147.882 87.091 147.882ZM70.3745 141.019C70.3229 141.019 70.2757 140.99 70.2518 140.943L69.2016 138.838C69.168 138.77 69.1953 138.688 69.2629 138.654C69.3291 138.622 69.4128 138.648 69.4464 138.716L70.2694 140.365L70.3974 138.379C70.4017 138.308 70.4601 138.252 70.5312 138.251C70.5322 138.251 70.5331 138.251 70.5341 138.251C70.6042 138.251 70.6631 138.304 70.6704 138.374L70.8753 140.412L71.8963 138.461C71.9318 138.395 72.015 138.369 72.0817 138.403C72.1484 138.439 72.1742 138.522 72.1396 138.589L70.9064 140.945C70.8787 140.998 70.8242 141.027 70.7585 141.015C70.6991 141.004 70.6548 140.955 70.648 140.895L70.5633 140.056L70.5098 140.889C70.5059 140.952 70.4611 141.003 70.4008 141.015C70.393 141.018 70.3837 141.019 70.3745 141.019Z" fill="black"/>
<path d="M80.6635 143.85C80.5968 143.85 80.5379 143.801 80.5282 143.732L80.025 140.306C80.0138 140.231 80.0658 140.162 80.1408 140.151C80.2128 140.137 80.2853 140.192 80.296 140.267L80.7992 143.693C80.8104 143.768 80.7584 143.837 80.6834 143.848C80.6766 143.849 80.6698 143.85 80.6635 143.85ZM106.365 128.483C106.355 128.483 106.343 128.482 106.333 128.479L103.181 127.701C103.107 127.683 103.063 127.609 103.08 127.535C103.098 127.461 103.175 127.417 103.246 127.434L106.398 128.212C106.472 128.23 106.516 128.305 106.499 128.378C106.483 128.441 106.427 128.483 106.365 128.483Z" fill="black"/>
<path d="M102.871 128.666C102.812 128.666 102.758 128.627 102.74 128.568C102.718 128.495 102.76 128.419 102.832 128.397L104.751 127.826C104.824 127.803 104.9 127.846 104.921 127.918C104.943 127.991 104.901 128.067 104.829 128.089L102.911 128.66C102.897 128.664 102.884 128.666 102.871 128.666ZM109.471 123.679C109.419 123.679 109.369 123.649 109.346 123.598L108.641 122.021L108.419 123.336C108.407 123.406 108.349 123.465 108.273 123.45C108.202 123.444 108.147 123.384 108.147 123.313V121.891L107.058 123.02C107.006 123.074 106.919 123.076 106.864 123.023C106.81 122.97 106.809 122.884 106.861 122.829L108.186 121.457C108.224 121.416 108.283 121.403 108.335 121.425C108.388 121.446 108.421 121.496 108.421 121.552V121.677L108.446 121.529C108.456 121.469 108.504 121.423 108.564 121.416C108.618 121.409 108.681 121.441 108.707 121.496L109.597 123.486C109.628 123.555 109.597 123.636 109.528 123.668C109.509 123.675 109.49 123.679 109.471 123.679ZM111.823 110.48C111.819 110.48 111.815 110.48 111.811 110.479C111.736 110.473 111.68 110.406 111.687 110.331L111.733 109.805C111.74 109.729 111.806 109.666 111.881 109.68C111.957 109.686 112.012 109.753 112.006 109.828L111.96 110.354C111.953 110.426 111.893 110.48 111.823 110.48ZM113.342 110.537C113.336 110.537 113.331 110.537 113.325 110.536C113.25 110.527 113.197 110.459 113.206 110.384L113.263 109.915C113.272 109.84 113.337 109.786 113.415 109.795C113.49 109.805 113.544 109.872 113.535 109.948L113.478 110.417C113.469 110.487 113.41 110.537 113.342 110.537ZM114.301 110.766C114.296 110.766 114.29 110.766 114.284 110.765C114.209 110.756 114.156 110.687 114.165 110.612L114.222 110.166C114.231 110.09 114.292 110.036 114.375 110.047C114.451 110.057 114.504 110.125 114.494 110.2L114.437 110.646C114.428 110.716 114.369 110.766 114.301 110.766ZM79.2824 113.256C79.1822 113.256 79.0756 113.237 78.9695 113.2C78.6726 113.096 78.3699 112.823 78.4128 112.373C78.4196 112.297 78.4819 112.241 78.5622 112.249C78.6376 112.256 78.6926 112.323 78.6858 112.399C78.6503 112.768 78.9637 112.907 79.0605 112.941C79.2557 113.011 79.4669 112.984 79.5321 112.885C79.6669 112.68 79.6007 111.499 79.5107 110.725C79.5014 110.65 79.5555 110.582 79.6304 110.573C79.7058 110.563 79.774 110.618 79.7822 110.693C79.8207 111.021 79.9988 112.672 79.7608 113.036C79.6674 113.178 79.4883 113.256 79.2824 113.256Z" fill="black"/>
<path d="M80.3161 112.966C80.0173 112.966 79.7175 112.846 79.6674 112.825C79.5978 112.795 79.5647 112.715 79.5939 112.645C79.6236 112.575 79.7044 112.541 79.773 112.572C79.9316 112.638 80.4222 112.787 80.5979 112.603C80.7424 112.448 80.6908 111.164 80.5609 110.062C80.5516 109.987 80.6052 109.918 80.6806 109.91C80.7546 109.903 80.8237 109.955 80.8324 110.03C80.9001 110.598 81.0962 112.478 80.7955 112.793C80.6714 112.924 80.4937 112.966 80.3161 112.966Z" fill="black"/>
<path d="M81.4494 112.643C81.081 112.643 80.7535 112.452 80.7326 112.439C80.6678 112.401 80.6464 112.317 80.6849 112.252C80.7233 112.186 80.8075 112.166 80.8722 112.204C80.8786 112.206 81.4835 112.557 81.848 112.221C82.1381 111.952 82.1643 110.413 82.1123 109.506C82.1079 109.43 82.1658 109.365 82.2412 109.36C82.3162 109.352 82.3814 109.414 82.3863 109.49C82.4091 109.904 82.5031 111.989 82.0339 112.422C81.8553 112.588 81.6465 112.643 81.4494 112.643Z" fill="black"/>
<path d="M82.3791 112.49C82.1333 112.49 81.9416 112.344 81.9304 112.335C81.8705 112.289 81.8598 112.203 81.9065 112.143C81.9528 112.082 82.0384 112.071 82.0988 112.119C82.1085 112.125 82.3489 112.302 82.5674 112.156C82.7183 112.055 82.7928 111.387 82.7747 110.827C82.7728 110.752 82.8317 110.688 82.9076 110.686C82.9709 110.686 83.0463 110.743 83.0487 110.819C83.059 111.128 83.0643 112.154 82.7198 112.384C82.603 112.462 82.4857 112.49 82.3791 112.49ZM96.928 115.718C96.8565 115.718 96.7956 115.663 96.7917 115.59C96.7878 115.533 96.7095 114.19 97.4643 113.723C98.2293 113.249 99.0236 113.842 99.0576 113.867C99.1175 113.913 99.1292 113.998 99.0839 114.059C99.0387 114.12 98.952 114.132 98.8922 114.086C98.8644 114.065 98.2113 113.582 97.6079 113.957C96.9932 114.337 97.0643 115.56 97.0647 115.572C97.0696 115.648 97.0127 115.713 96.9372 115.718C96.9338 115.718 96.9309 115.718 96.928 115.718Z" fill="black"/>
<path d="M98.8289 115.65C98.8226 115.65 98.8162 115.65 98.8094 115.649C98.7802 115.645 98.0809 115.54 97.6404 114.961C97.1801 114.356 97.5202 113.736 97.5343 113.709C97.5713 113.645 97.6546 113.62 97.7203 113.657C97.786 113.694 97.8103 113.777 97.7738 113.844C97.7626 113.864 97.5095 114.336 97.859 114.795C98.2293 115.282 98.842 115.376 98.8479 115.377C98.9228 115.388 98.9749 115.458 98.9642 115.532C98.9549 115.6 98.8965 115.65 98.8289 115.65Z" fill="black"/>
<path d="M91.7153 118.67C91.7153 118.67 94.8426 117.091 95.083 117.366C95.3234 117.64 95.0611 119.424 94.3871 119.882C93.7135 120.339 91.4641 118.955 91.7153 118.67Z" fill="white"/>
<path d="M91.7798 118.125C91.6893 118.125 91.6071 118.105 91.5462 118.053C91.3618 117.896 91.4533 117.29 91.5618 116.809C91.5789 116.735 91.6538 116.691 91.7263 116.706C91.8003 116.723 91.846 116.796 91.8295 116.87C91.7292 117.31 91.6845 117.77 91.7331 117.854C91.7759 117.879 92.0509 117.808 92.2709 117.7C92.34 117.666 92.4208 117.695 92.4544 117.762C92.4875 117.831 92.4597 117.913 92.3916 117.946C92.2612 118.011 91.9969 118.125 91.7798 118.125ZM118.605 78.213C118.593 78.213 118.579 78.2115 118.566 78.2072C118.494 78.1857 118.453 78.1097 118.474 78.0365C119.132 75.8213 119.284 74.4783 119.025 69.849C118.738 64.7093 116.9 62.2113 116.881 62.1869C116.867 62.1655 116.45 61.4425 115.209 59.8489C113.98 58.2708 111.786 57.2091 111.764 57.1983C111.696 57.1657 111.667 57.0838 111.7 57.0155C111.733 56.9473 111.816 56.919 111.882 56.9507C111.975 56.9946 114.156 58.0505 115.426 59.6807C116.681 61.2933 117.093 62.007 117.109 62.0363C117.178 62.1245 119.007 64.6025 119.299 69.8339C119.56 74.5036 119.405 75.8637 118.737 78.1145C118.719 78.174 118.664 78.213 118.605 78.213Z" fill="black"/>
<path d="M79.6838 158.903C79.6838 158.903 79.1207 160.464 78.8467 161.081C78.5727 161.699 77.7444 161.9 77.7444 161.9L75.0322 152.949L77.6096 154.812L79.6838 158.903Z" fill="#121A41"/>
<path d="M75.3987 159.365C75.3987 159.365 75.8099 160.086 75.9126 160.978C76.0153 161.87 77.4198 162.505 78.0194 161.63C78.619 160.755 77.7795 157.049 76.9916 155.35C76.2037 153.652 74.4911 152.245 73.9601 152.691C73.4292 153.137 73.4462 157.752 73.8745 158.439C74.3027 159.125 75.2109 158.967 75.3987 159.365Z" fill="#283566"/>
<path d="M90.3909 116.725C90.39 116.725 90.389 116.725 90.388 116.725C90.3121 116.724 90.2522 116.661 90.2537 116.585C90.2586 116.333 90.3788 115.856 90.8017 115.856C91.282 115.856 91.52 116.342 91.5302 116.362C91.5628 116.431 91.5341 116.512 91.466 116.545C91.4008 116.577 91.3166 116.55 91.2835 116.482C91.2815 116.478 91.1078 116.13 90.8017 116.13C90.5413 116.13 90.5277 116.586 90.5277 116.59C90.5267 116.666 90.4654 116.725 90.3909 116.725ZM92.7547 116.336C92.6865 116.336 92.6281 116.286 92.6189 116.217C92.6135 116.177 92.5712 115.818 92.7493 115.6C92.8277 115.505 92.9372 115.451 93.0661 115.444C93.5197 115.423 93.8589 115.783 93.8725 115.798C93.9227 115.854 93.9178 115.941 93.8618 115.992C93.8049 116.042 93.7183 116.038 93.6686 115.982C93.6662 115.978 93.4073 115.683 93.0822 115.718C93.0291 115.721 92.9907 115.739 92.961 115.774C92.8739 115.88 92.8807 116.108 92.8904 116.18C92.9002 116.256 92.8476 116.325 92.7727 116.335C92.7663 116.336 92.7605 116.336 92.7547 116.336Z" fill="black"/>
<path d="M183.657 69.7383C183.643 69.7383 183.63 69.7369 183.616 69.734C183.542 69.7188 183.482 69.6647 183.46 69.5931L173.582 37.4756C173.549 37.3669 173.609 37.2513 173.718 37.2182C173.828 37.1836 173.942 37.2455 173.975 37.3542L183.742 69.1119L202.875 46.4778C202.949 46.3905 203.078 46.3808 203.165 46.4539C203.251 46.5275 203.262 46.6572 203.188 46.7439L183.814 69.6657C183.774 69.712 183.717 69.7383 183.657 69.7383ZM207.554 70.1503C207.515 70.1503 207.476 70.1396 207.442 70.1171C207.36 70.0635 207.328 69.9602 207.363 69.869L222.915 30.3625C222.956 30.2562 223.077 30.2055 223.182 30.2465C223.287 30.2884 223.339 30.4078 223.297 30.5136L208.113 69.088L238.992 37.8763C239.071 37.7954 239.201 37.7949 239.282 37.8749C239.363 37.9553 239.363 38.0855 239.284 38.1659L207.7 70.0898C207.66 70.1293 207.608 70.1503 207.554 70.1503Z" fill="black"/>
<path d="M184.398 81.2677L187.618 80.0323C187.618 80.0323 188.577 85.2481 189.033 86.1173C189.49 86.9865 192.39 90.3035 192.779 90.3493C193.167 90.3951 194.446 90.3493 194.446 90.3493L200.018 90.0978C200.018 90.0978 202.667 90.3264 202.941 90.1436C203.215 89.9608 203.991 84.2531 203.991 84.2531L207.862 84.5276C207.862 84.5276 207.622 91.7908 206.938 94.1698C206.252 96.5488 205.659 101.17 204.608 103.411C203.558 105.653 199.904 113.339 199.904 113.339C199.904 113.339 197.255 110.686 194.789 109.496C192.323 108.307 187.801 106.751 187.801 106.751C187.801 106.751 190.861 97.8295 190.724 96.6858C190.587 95.5422 186.019 89.836 185.609 88.6172C185.197 87.3985 184.398 81.2677 184.398 81.2677Z" fill="#FEC76D"/>
<path d="M193.236 84.8707C193.236 84.8707 192.87 83.6924 194.149 83.0748C195.428 82.4571 198.83 82.1826 199.173 82.4342C199.516 82.6857 199.355 83.3263 199.355 83.3263C199.355 83.3263 200.954 82.8915 201.319 83.7836C201.685 84.6757 201.38 85.4899 201.38 85.4899C201.38 85.4899 201.753 87.238 199.059 87.9244C196.364 88.6108 193.236 84.8707 193.236 84.8707Z" fill="#AC4848"/>
<path d="M193.236 84.8708C193.236 84.8708 193.852 89.9491 194.811 90.9441C195.771 91.9391 196.73 91.5959 196.73 91.5959L197.792 92.5221C197.792 92.5221 198.922 92.3505 199.676 91.3555C200.43 90.3605 200.087 89.4338 200.087 89.4338L200.165 88.0269C200.165 88.0269 201.937 87.9927 201.92 86.8773C201.903 85.7619 201.234 84.9385 200.258 85.4017C199.282 85.8648 199.128 87.0831 199.128 87.0831C199.128 87.0831 198.597 85.5733 198.168 85.4358C197.74 85.2983 197.004 85.5216 196.113 85.1272C195.223 84.7333 193.801 84.5617 193.236 84.8708Z" fill="#F69380"/>
<path d="M177.752 109.405L187.8 106.751C187.8 106.751 190.13 106.614 193.875 108.078C197.62 109.542 199.904 113.34 199.904 113.34L193.19 123.542L185.608 120.431L186.978 115.856L181.634 116.999L177.752 109.405Z" fill="#3EA3B9"/>
<path d="M194.777 114.861L192.105 119.733L195.394 121.723L198.442 116.885L194.777 114.861Z" fill="#3C468E"/>
<path d="M195.702 118.052L194.401 115.547L194.777 114.861L198.442 116.885L197.975 117.626L195.702 118.052Z" fill="#121A41"/>
<path d="M179.022 109.069L183.014 116.705L181.635 116.999L177.752 109.405L179.022 109.069Z" fill="#3C468E"/>
<path d="M185.974 119.208L193.816 122.591L193.19 123.542L185.608 120.431L185.974 119.208Z" fill="#3C468E"/>
<path d="M182.978 74.6201C182.604 74.6201 182.287 74.5148 182.057 74.2721C182.005 74.2179 181.987 74.1395 182.01 74.0683L183.461 69.4702C183.492 69.3717 183.588 69.3103 183.694 69.3298C184.69 69.5111 187.968 70.1527 188.337 70.803C188.654 71.3636 187.036 72.6292 186.533 73.0036C185.361 73.8738 183.973 74.6201 182.978 74.6201ZM182.442 74.0654C182.842 74.3549 183.558 74.1643 184.109 73.9435C186.008 73.182 187.971 71.3432 187.97 70.9785C187.798 70.6865 185.704 70.1254 183.799 69.768L182.442 74.0654ZM209.063 75.0062C207.685 75.0062 204.082 73.8182 203.313 73.0031C202.976 72.6453 203.118 72.3689 203.194 72.2665C203.211 72.2445 203.231 72.2265 203.255 72.2124L207.451 69.7666C207.498 69.7393 207.556 69.7324 207.608 69.7456C207.661 69.7602 207.706 69.7953 207.733 69.8436C208.689 71.546 210.191 74.469 209.517 74.9199C209.428 74.9794 209.271 75.0062 209.063 75.0062ZM203.51 72.54C203.506 72.5658 203.516 72.6107 203.589 72.6945C204.397 73.6276 208.828 74.8288 209.292 74.5763C209.463 74.3052 208.643 72.3338 207.477 70.2278L203.51 72.54Z" fill="black"/>
<path d="M186.04 120.608C186.04 120.608 183.69 125.006 182.502 126.15C181.315 127.293 177.021 132.555 177.021 132.555L180.675 135.026C180.675 135.026 184.512 131.045 185.608 129.764C186.704 128.483 192.327 123.188 192.327 123.188L186.04 120.608Z" fill="#F69380"/>
<path d="M172.751 132.429C172.246 132.524 172.101 133.39 171.895 133.699C171.689 134.007 171.929 137.096 171.381 138.366C170.833 139.636 170.49 142.003 171.415 142.14C172.339 142.278 173.367 139.738 173.984 138.88C174.601 138.022 175.662 135.037 175.457 134.557C175.252 134.076 173.299 132.326 172.751 132.429Z" fill="#F9E4C7"/>
<path d="M180.676 135.026C180.676 135.026 175.355 139.258 175.184 139.498C175.012 139.738 174.67 140.596 174.053 140.836C173.436 141.077 172.083 141.843 172.083 141.843L175.479 134.798L177.021 132.556L180.676 135.026Z" fill="#F9E4C7"/>
<path d="M178.013 109.915C178.013 109.915 171.6 112.364 170.84 113.035C170.079 113.705 162.497 119.928 162.497 119.928L164.233 122.399C164.233 122.399 172.224 118.738 173.161 118.052C174.098 117.366 181.203 116.157 181.203 116.157L178.013 109.915Z" fill="#F69380"/>
<path d="M154.596 117.823C154.596 117.823 155.761 120.019 156.948 120.842C158.136 121.666 160.122 121.735 160.419 121.598C160.716 121.46 162.497 119.928 162.497 119.928L164.233 122.399C164.233 122.399 160.83 124.389 160.054 124.983C159.277 125.578 159.071 126.699 158.021 126.699C156.971 126.699 157.016 123.61 156.309 123.039C155.601 122.467 154.87 121.414 154.596 120.408C154.322 119.401 154.094 118.715 154.071 118.463C154.048 118.212 154.596 117.823 154.596 117.823Z" fill="#F9E4C7"/>
<path d="M203.992 84.2531C203.992 84.2531 204.608 75.5376 204.506 75.2285C204.403 74.9194 204.289 74.0049 204.255 73.8445C204.221 73.6841 204.403 73.3414 204.403 73.3414L204.768 73.4901C204.768 73.4901 204.791 72.4264 204.963 72.3922C205.134 72.3581 206.093 72.7696 206.71 72.7925C207.326 72.8154 207.783 73.456 207.783 73.6958C207.783 73.9357 207.418 76.0519 207.441 76.8299C207.464 77.6075 207.863 84.5276 207.863 84.5276L203.992 84.2531ZM184.398 81.2677C184.398 81.2677 184.42 76.4409 184.283 76.0748C184.146 75.7087 183.507 74.0619 183.69 73.5812C183.872 73.1011 184.169 72.9865 184.169 72.9865C184.169 72.9865 184.263 72.3878 184.399 72.3898C184.534 72.3917 184.899 72.3898 184.899 72.3898C184.899 72.3898 185.059 72.0715 185.219 72.0027C185.379 71.934 185.744 72.0027 185.744 72.0027C185.744 72.0027 185.972 71.5679 186.224 71.5679C186.475 71.5679 186.794 71.8882 186.84 72.2314C186.886 72.5746 187.936 73.1922 188.096 73.3063C188.256 73.4209 188.096 75.0447 187.662 75.5483C187.228 76.0514 187.616 80.0318 187.616 80.0318L184.398 81.2677Z" fill="#F69380"/>
<path d="M172.957 35.4251C173.094 34.7387 176.999 18.8175 187.823 13.1215C198.648 7.42556 210.774 8.11196 221.53 14.3568C232.286 20.6017 238.178 32.4055 238.863 34.4647C239.548 36.5235 239.959 38.5139 239.685 38.8566C239.411 39.1998 224.27 34.0528 223.38 32.8862C222.489 31.7196 220.776 27.396 220.776 27.396C220.776 27.396 217.283 27.8079 213.583 33.2982C209.883 38.7884 206.116 46.6805 202.621 47.7784C199.127 48.8762 197.346 45.7884 195.291 43.4547C193.235 41.1211 190.084 38.239 185.699 37.5526C181.315 36.8662 175.218 39.0624 173.779 38.5822C172.34 38.1015 172.957 35.4251 172.957 35.4251Z" fill="#3C468E"/>
<path d="M211.505 14.4709C211.505 14.4709 213.241 15.6146 215.022 17.628C216.803 19.6409 217.305 20.922 217.305 20.922C217.305 20.922 211.824 24.8566 208.125 29.1573C204.425 33.4581 201.365 38.2161 199.355 40.1836C197.346 42.1507 195.29 43.4547 195.29 43.4547C195.29 43.4547 193.63 41.6408 192.744 40.9388C191.858 40.2368 189.411 38.7362 189.411 38.7362C189.411 38.7362 194.011 34.2815 196.524 30.8499C199.036 27.4184 208.399 15.7062 211.505 14.4709ZM231.825 25.952C228.336 20.5754 225.82 17.3662 225.717 17.2355C224.413 16.1962 223.018 15.2207 221.526 14.3544C218.397 12.5375 215.152 11.1949 211.856 10.3394C212.027 10.4515 218.103 14.4621 223.056 20.4165C228.08 26.4551 230.947 36.1442 230.948 36.1457C230.949 36.1461 230.95 36.1461 230.951 36.1466L236.465 38.0181C236.468 38.0191 236.47 38.0196 236.473 38.0206C236.472 38.0162 235.387 31.4403 231.825 25.952Z" fill="#F05E6B"/>
<path d="M189.845 35.0131C189.731 35.0131 189.639 34.921 189.639 34.8074V31.9936C189.639 31.88 189.731 31.7878 189.845 31.7878C189.958 31.7878 190.05 31.88 190.05 31.9936V34.8074C190.05 34.921 189.958 35.0131 189.845 35.0131Z" fill="black"/>
<path d="M188.2 34.0182C188.107 34.0182 188.022 33.9539 188 33.8588C187.974 33.7477 188.043 33.6375 188.154 33.6117L191.1 32.9253C191.213 32.8985 191.321 32.9691 191.346 33.0793C191.372 33.1905 191.304 33.3006 191.193 33.3265L188.247 34.0129C188.231 34.0163 188.215 34.0182 188.2 34.0182ZM192.928 31.6388C192.814 31.6388 192.722 31.5466 192.722 31.433V28.6192C192.722 28.5056 192.814 28.4135 192.928 28.4135C193.041 28.4135 193.133 28.5056 193.133 28.6192V31.433C193.133 31.5466 193.041 31.6388 192.928 31.6388Z" fill="black"/>
<path d="M191.283 30.6438C191.19 30.6438 191.105 30.5794 191.083 30.4843C191.057 30.3732 191.126 30.263 191.237 30.2372L194.183 29.5508C194.294 29.5245 194.404 29.5947 194.429 29.7048C194.455 29.816 194.387 29.9262 194.276 29.952L191.33 30.6384C191.314 30.6418 191.298 30.6438 191.283 30.6438ZM197.723 25.6167C197.61 25.6167 197.518 25.5245 197.518 25.4109V22.5971C197.518 22.4835 197.61 22.3914 197.723 22.3914C197.837 22.3914 197.929 22.4835 197.929 22.5971V25.4109C197.929 25.5245 197.837 25.6167 197.723 25.6167Z" fill="black"/>
<path d="M196.078 24.6217C195.985 24.6217 195.9 24.5573 195.878 24.4623C195.853 24.3511 195.921 24.2409 196.032 24.2151L198.978 23.5287C199.09 23.5014 199.199 23.5726 199.225 23.6828C199.251 23.7939 199.182 23.9041 199.071 23.9299L196.125 24.6163C196.11 24.6197 196.094 24.6217 196.078 24.6217ZM200.669 22.8028C200.555 22.8028 200.463 22.7107 200.463 22.5971V19.7832C200.463 19.6697 200.555 19.5775 200.669 19.5775C200.782 19.5775 200.874 19.6697 200.874 19.7832V22.5971C200.874 22.7107 200.782 22.8028 200.669 22.8028Z" fill="black"/>
<path d="M199.025 21.8078C198.931 21.8078 198.847 21.7434 198.825 21.6484C198.799 21.5372 198.868 21.427 198.979 21.4012L201.924 20.7148C202.039 20.689 202.146 20.7587 202.171 20.8689C202.197 20.98 202.128 21.0902 202.017 21.116L199.071 21.8024C199.055 21.8063 199.039 21.8078 199.025 21.8078ZM204.231 18.8911C204.118 18.8911 204.026 18.7989 204.026 18.6853V15.8715C204.026 15.7579 204.118 15.6658 204.231 15.6658C204.345 15.6658 204.437 15.7579 204.437 15.8715V18.6853C204.437 18.7989 204.345 18.8911 204.231 18.8911Z" fill="black"/>
<path d="M202.587 17.896C202.494 17.896 202.409 17.8317 202.387 17.7366C202.362 17.6255 202.43 17.5153 202.541 17.4895L205.487 16.8031C205.602 16.7762 205.708 16.8469 205.734 16.9571C205.759 17.0683 205.691 17.1784 205.58 17.2043L202.634 17.8907C202.618 17.8946 202.602 17.896 202.587 17.896ZM205.276 80.941C205.243 80.941 205.21 80.9288 205.183 80.9039C205.128 80.8523 205.125 80.766 205.176 80.7109C205.187 80.6992 205.442 80.4296 205.835 80.4096C206.211 80.3862 206.496 80.549 206.509 80.5559C206.575 80.5934 206.598 80.6763 206.561 80.7426C206.524 80.8084 206.441 80.8328 206.375 80.7952C206.373 80.7938 206.15 80.6656 205.849 80.6841C205.569 80.6982 205.378 80.8957 205.377 80.8981C205.349 80.9269 205.313 80.941 205.276 80.941ZM195.093 88.4319C195.079 88.4319 195.065 88.4314 195.051 88.4309C194.835 88.4178 194.68 88.3573 194.592 88.2525C194.511 88.155 194.518 88.0561 194.521 88.037C194.53 87.962 194.6 87.9078 194.673 87.9176C194.745 87.9264 194.797 87.9888 194.794 88.0604C194.798 88.0829 194.856 88.1448 195.067 88.157C195.406 88.1789 195.678 87.7616 195.68 87.7577C195.72 87.6938 195.805 87.6753 195.869 87.7153C195.933 87.7553 195.952 87.8401 195.911 87.9044C195.898 87.9254 195.574 88.4319 195.093 88.4319Z" fill="black"/>
<path d="M195.226 89.7088C195.226 89.7088 195.736 90.0432 196.181 89.8716C196.627 89.7 196.807 89.1252 196.807 89.1252C196.807 89.1252 194.965 89.5811 195.226 89.7088Z" fill="white"/>
<path d="M184.403 75.5069C184.149 75.5069 183.925 75.366 183.91 75.3567C183.846 75.3158 183.828 75.2314 183.868 75.1676C183.909 75.1037 183.993 75.0847 184.057 75.1252C184.061 75.1281 184.417 75.3504 184.62 75.1437C184.729 75.0087 184.46 74.0254 184.042 73.0406C184.013 72.9709 184.046 72.8905 184.115 72.8602C184.187 72.8329 184.265 72.8637 184.295 72.9334C184.557 73.5505 185.131 75.0199 184.814 75.3382C184.688 75.4649 184.541 75.5069 184.403 75.5069Z" fill="black"/>
<path d="M185.113 75.076C184.957 75.076 184.808 75.0331 184.709 74.9878C184.64 74.9556 184.61 74.8747 184.642 74.8059C184.673 74.7372 184.754 74.707 184.823 74.7377C184.841 74.7464 185.257 74.9307 185.42 74.6363C185.54 74.4193 185.18 73.3312 184.776 72.4474C184.745 72.3787 184.775 72.2972 184.844 72.2656C184.911 72.2329 184.994 72.2641 185.026 72.3338C185.175 72.6614 185.91 74.3204 185.66 74.7694C185.53 75.0034 185.316 75.076 185.113 75.076Z" fill="black"/>
<path d="M186.006 74.6265C185.779 74.6265 185.573 74.5597 185.534 74.546C185.463 74.5221 185.424 74.4437 185.448 74.3725C185.473 74.3003 185.552 74.2613 185.622 74.2867C185.756 74.331 186.168 74.4212 186.314 74.2482C186.406 74.0795 186.03 72.9792 185.62 72.0593C185.589 71.9901 185.62 71.9091 185.689 71.8779C185.757 71.8467 185.839 71.8779 185.87 71.9477C186.225 72.7413 186.781 74.119 186.524 74.4251C186.392 74.5816 186.193 74.6265 186.006 74.6265Z" fill="black"/>
<path d="M186.878 74.3862C186.688 74.3862 186.495 74.2989 186.379 74.2214C186.317 74.179 186.3 74.0937 186.342 74.0313C186.384 73.9689 186.47 73.9513 186.532 73.9932C186.536 73.9957 186.902 74.2355 187.05 74.0274C187.161 73.8709 186.965 72.9963 186.712 72.2772C186.687 72.2061 186.724 72.1276 186.796 72.1022C186.869 72.0764 186.945 72.1144 186.971 72.1861C187.105 72.5668 187.523 73.8358 187.273 74.1868C187.168 74.335 187.024 74.3862 186.878 74.3862ZM186.978 115.993C186.965 115.993 186.952 115.991 186.939 115.987C186.866 115.965 186.826 115.888 186.848 115.815L187.967 112.178C187.989 112.106 188.067 112.066 188.138 112.087C188.211 112.109 188.251 112.186 188.229 112.259L187.11 115.896C187.091 115.955 187.036 115.993 186.978 115.993Z" fill="black"/>
<path d="M178.013 109.915L179.536 116.456L181.204 116.157L178.013 109.915Z" fill="#121A41"/>
<path d="M185.7 75.6405H185.699C185.624 75.64 185.563 75.579 185.563 75.5025C185.563 75.4684 185.571 74.6474 186.117 74.3496C186.183 74.3135 186.266 74.3374 186.303 74.4047C186.339 74.471 186.315 74.5543 186.248 74.5909C185.845 74.8108 185.837 75.4967 185.837 75.5035C185.836 75.579 185.775 75.6405 185.7 75.6405ZM172.826 141.573C172.794 141.573 172.761 141.562 172.736 141.539C172.678 141.49 172.672 141.403 172.723 141.346C172.735 141.331 174.005 139.854 174.504 138.122C175.01 136.363 175.342 134.785 175.345 134.769C175.361 134.696 175.432 134.651 175.508 134.663C175.582 134.679 175.629 134.751 175.614 134.826C175.61 134.841 175.277 136.429 174.767 138.198C174.251 139.991 172.982 141.464 172.929 141.526C172.902 141.557 172.864 141.573 172.826 141.573ZM220.777 27.6012C220.694 27.6012 220.616 27.551 220.584 27.4686C220.548 27.375 216.936 18.0462 211.397 14.6454C205.829 11.2271 199.325 9.69537 199.26 9.68026C199.149 9.65442 199.08 9.54425 199.106 9.4331C199.131 9.32341 199.234 9.25126 199.352 9.27905C199.418 9.29416 205.985 10.8395 211.612 14.2949C217.27 17.7689 220.932 27.2264 220.968 27.3219C221.008 27.4282 220.956 27.5471 220.85 27.5876C220.826 27.5973 220.801 27.6012 220.777 27.6012ZM193.835 87.1781C193.76 87.1781 193.698 87.1167 193.698 87.0407C193.698 87.0051 193.703 86.6921 193.881 86.5181C193.956 86.4445 194.053 86.4059 194.161 86.4059C194.165 86.4059 194.168 86.4059 194.172 86.4059C194.565 86.4162 194.879 86.8013 194.892 86.8174C194.939 86.8764 194.93 86.9627 194.871 87.0104C194.812 87.0572 194.727 87.0489 194.679 86.99C194.61 86.9056 194.385 86.6858 194.165 86.6804C194.126 86.6809 194.096 86.6897 194.072 86.7145C193.996 86.7886 193.971 86.9661 193.971 87.0407C193.972 87.1167 193.911 87.1781 193.835 87.1781ZM197.226 87.067C197.176 87.067 197.128 87.0392 197.104 86.9909C197.099 86.9836 196.982 86.7696 196.627 86.677C196.511 86.6463 196.465 86.6809 196.45 86.6926C196.369 86.7521 196.346 86.9007 196.344 86.9373C196.34 87.0129 196.272 87.0723 196.2 87.0675C196.124 87.0631 196.066 86.9987 196.07 86.9232C196.071 86.892 196.091 86.6156 196.288 86.4713C196.364 86.4152 196.498 86.3596 196.695 86.4113C197.179 86.5371 197.342 86.8554 197.349 86.8691C197.382 86.9368 197.355 87.0192 197.288 87.0528C197.268 87.0621 197.247 87.067 197.226 87.067Z" fill="black"/>
</svg>
